  0
SECTION
  2
BLOCKS
  0
ENDSEC
  0
SECTION
  2
ENTITIES
  0
LINE
  8
0
 10
-202.719
 20
-24.495
 11
-190.424
 21
-24.495
  0
LINE
  8
0
 10
-190.424
 20
-24.495
 11
-190.424
 21
-30.5
  0
LINE
  8
0
 10
-190.424
 20
-30.5
 11
-178.148
 21
-30.5
  0
LINE
  8
0
 10
-178.148
 20
-30.5
 11
-178.148
 21
-24.495
  0
LINE
  8
0
 10
-178.148
 20
-24.495
 11
-165.852
 21
-24.495
  0
LINE
  8
0
 10
-165.852
 20
-24.495
 11
-165.852
 21
-30.5
  0
LINE
  8
0
 10
-165.852
 20
-30.5
 11
-153.576
 21
-30.5
  0
LINE
  8
0
 10
-153.576
 20
-30.5
 11
-153.576
 21
-24.495
  0
LINE
  8
0
 10
-153.576
 20
-24.495
 11
-141.281
 21
-24.495
  0
LINE
  8
0
 10
-141.281
 20
-24.495
 11
-141.281
 21
-30.5
  0
LINE
  8
0
 10
-141.281
 20
-30.5
 11
-129.005
 21
-30.5
  0
LINE
  8
0
 10
-129.005
 20
-30.5
 11
-129.005
 21
-24.495
  0
LINE
  8
0
 10
-129.005
 20
-24.495
 11
-116.709
 21
-24.495
  0
LINE
  8
0
 10
-116.709
 20
-24.495
 11
-116.709
 21
-30.5
  0
LINE
  8
0
 10
-116.709
 20
-30.5
 11
-104.434
 21
-30.5
  0
LINE
  8
0
 10
-104.434
 20
-30.5
 11
-104.434
 21
-24.495
  0
LINE
  8
0
 10
-104.434
 20
-24.495
 11
-92.1378
 21
-24.495
  0
LINE
  8
0
 10
-92.1378
 20
-24.495
 11
-92.1378
 21
-30.5
  0
LINE
  8
0
 10
-92.1378
 20
-30.5
 11
-79.8621
 21
-30.5
  0
LINE
  8
0
 10
-79.8621
 20
-30.5
 11
-79.8621
 21
-24.495
  0
LINE
  8
0
 10
-79.8621
 20
-24.495
 11
-67.5664
 21
-24.495
  0
LINE
  8
0
 10
-67.5664
 20
-24.495
 11
-67.5664
 21
-30.5
  0
LINE
  8
0
 10
-67.5664
 20
-30.5
 11
-55.2907
 21
-30.5
  0
LINE
  8
0
 10
-55.2907
 20
-30.5
 11
-55.2907
 21
-24.495
  0
LINE
  8
0
 10
-55.2907
 20
-24.495
 11
-42.995
 21
-24.495
  0
LINE
  8
0
 10
-42.995
 20
-24.495
 11
-42.995
 21
-30.5
  0
LINE
  8
0
 10
-42.995
 20
-30.5
 11
-30.7193
 21
-30.5
  0
LINE
  8
0
 10
-30.7193
 20
-30.5
 11
-30.7193
 21
-24.495
  0
LINE
  8
0
 10
-30.7193
 20
-24.495
 11
-18.4236
 21
-24.495
  0
LINE
  8
0
 10
-18.4236
 20
-24.495
 11
-18.4236
 21
-30.5
  0
LINE
  8
0
 10
-18.4236
 20
-30.5
 11
-6.14784
 21
-30.5
  0
LINE
  8
0
 10
-6.14784
 20
-30.5
 11
-6.14784
 21
-24.495
  0
LINE
  8
0
 10
-6.14784
 20
-24.495
 11
6.14784
 21
-24.495
  0
LINE
  8
0
 10
6.14784
 20
-24.495
 11
6.14784
 21
-30.5
  0
LINE
  8
0
 10
6.14784
 20
-30.5
 11
18.4236
 21
-30.5
  0
LINE
  8
0
 10
18.4236
 20
-30.5
 11
18.4236
 21
-24.495
  0
LINE
  8
0
 10
18.4236
 20
-24.495
 11
30.7193
 21
-24.495
  0
LINE
  8
0
 10
30.7193
 20
-24.495
 11
30.7193
 21
-30.5
  0
LINE
  8
0
 10
30.7193
 20
-30.5
 11
42.995
 21
-30.5
  0
LINE
  8
0
 10
42.995
 20
-30.5
 11
42.995
 21
-24.495
  0
LINE
  8
0
 10
42.995
 20
-24.495
 11
55.2907
 21
-24.495
  0
LINE
  8
0
 10
55.2907
 20
-24.495
 11
55.2907
 21
-30.5
  0
LINE
  8
0
 10
55.2907
 20
-30.5
 11
67.5664
 21
-30.5
  0
LINE
  8
0
 10
67.5664
 20
-30.5
 11
67.5664
 21
-24.495
  0
LINE
  8
0
 10
67.5664
 20
-24.495
 11
79.8621
 21
-24.495
  0
LINE
  8
0
 10
79.8621
 20
-24.495
 11
79.8621
 21
-30.5
  0
LINE
  8
0
 10
79.8621
 20
-30.5
 11
92.1378
 21
-30.5
  0
LINE
  8
0
 10
92.1378
 20
-30.5
 11
92.1378
 21
-24.495
  0
LINE
  8
0
 10
92.1378
 20
-24.495
 11
104.434
 21
-24.495
  0
LINE
  8
0
 10
104.434
 20
-24.495
 11
104.434
 21
-30.5
  0
LINE
  8
0
 10
104.434
 20
-30.5
 11
116.709
 21
-30.5
  0
LINE
  8
0
 10
116.709
 20
-30.5
 11
116.709
 21
-24.495
  0
LINE
  8
0
 10
116.709
 20
-24.495
 11
129.005
 21
-24.495
  0
LINE
  8
0
 10
129.005
 20
-24.495
 11
129.005
 21
-30.5
  0
LINE
  8
0
 10
129.005
 20
-30.5
 11
141.281
 21
-30.5
  0
LINE
  8
0
 10
141.281
 20
-30.5
 11
141.281
 21
-24.495
  0
LINE
  8
0
 10
141.281
 20
-24.495
 11
153.576
 21
-24.495
  0
LINE
  8
0
 10
153.576
 20
-24.495
 11
153.576
 21
-30.5
  0
LINE
  8
0
 10
153.576
 20
-30.5
 11
165.852
 21
-30.5
  0
LINE
  8
0
 10
165.852
 20
-30.5
 11
165.852
 21
-24.495
  0
LINE
  8
0
 10
165.852
 20
-24.495
 11
178.148
 21
-24.495
  0
LINE
  8
0
 10
178.148
 20
-24.495
 11
178.148
 21
-30.5
  0
LINE
  8
0
 10
178.148
 20
-30.5
 11
190.424
 21
-30.5
  0
LINE
  8
0
 10
190.424
 20
-30.5
 11
190.424
 21
-24.495
  0
LINE
  8
0
 10
190.424
 20
-24.495
 11
202.719
 21
-24.495
  0
LINE
  8
0
 10
202.719
 20
-24.495
 11
202.719
 21
-30.5
  0
LINE
  8
0
 10
202.719
 20
-30.5
 11
215
 21
-30.5
  0
LINE
  8
0
 10
215
 20
-30.5
 11
215
 21
-18.305
  0
LINE
  8
0
 10
215
 20
-18.305
 11
208.995
 21
-18.305
  0
LINE
  8
0
 10
208.995
 20
-18.305
 11
208.995
 21
-6.09499
  0
LINE
  8
0
 10
208.995
 20
-6.09499
 11
215
 21
-6.09499
  0
LINE
  8
0
 10
215
 20
-6.09499
 11
215
 21
6.09499
  0
LINE
  8
0
 10
215
 20
6.09499
 11
208.995
 21
6.09499
  0
LINE
  8
0
 10
208.995
 20
6.09499
 11
208.995
 21
18.305
  0
LINE
  8
0
 10
208.995
 20
18.305
 11
215
 21
18.305
  0
LINE
  8
0
 10
215
 20
18.305
 11
215
 21
30.5
  0
LINE
  8
0
 10
215
 20
30.5
 11
202.719
 21
30.5
  0
LINE
  8
0
 10
202.719
 20
30.5
 11
202.719
 21
24.495
  0
LINE
  8
0
 10
202.719
 20
24.495
 11
190.424
 21
24.495
  0
LINE
  8
0
 10
190.424
 20
24.495
 11
190.424
 21
30.5
  0
LINE
  8
0
 10
190.424
 20
30.5
 11
178.148
 21
30.5
  0
LINE
  8
0
 10
178.148
 20
30.5
 11
178.148
 21
24.495
  0
LINE
  8
0
 10
178.148
 20
24.495
 11
165.852
 21
24.495
  0
LINE
  8
0
 10
165.852
 20
24.495
 11
165.852
 21
30.5
  0
LINE
  8
0
 10
165.852
 20
30.5
 11
153.576
 21
30.5
  0
LINE
  8
0
 10
153.576
 20
30.5
 11
153.576
 21
24.495
  0
LINE
  8
0
 10
153.576
 20
24.495
 11
141.281
 21
24.495
  0
LINE
  8
0
 10
141.281
 20
24.495
 11
141.281
 21
30.5
  0
LINE
  8
0
 10
141.281
 20
30.5
 11
129.005
 21
30.5
  0
LINE
  8
0
 10
129.005
 20
30.5
 11
129.005
 21
24.495
  0
LINE
  8
0
 10
129.005
 20
24.495
 11
116.709
 21
24.495
  0
LINE
  8
0
 10
116.709
 20
24.495
 11
116.709
 21
30.5
  0
LINE
  8
0
 10
116.709
 20
30.5
 11
104.434
 21
30.5
  0
LINE
  8
0
 10
104.434
 20
30.5
 11
104.434
 21
24.495
  0
LINE
  8
0
 10
104.434
 20
24.495
 11
92.1378
 21
24.495
  0
LINE
  8
0
 10
92.1378
 20
24.495
 11
92.1378
 21
30.5
  0
LINE
  8
0
 10
92.1378
 20
30.5
 11
79.8621
 21
30.5
  0
LINE
  8
0
 10
79.8621
 20
30.5
 11
79.8621
 21
24.495
  0
LINE
  8
0
 10
79.8621
 20
24.495
 11
67.5664
 21
24.495
  0
LINE
  8
0
 10
67.5664
 20
24.495
 11
67.5664
 21
30.5
  0
LINE
  8
0
 10
67.5664
 20
30.5
 11
55.2907
 21
30.5
  0
LINE
  8
0
 10
55.2907
 20
30.5
 11
55.2907
 21
24.495
  0
LINE
  8
0
 10
55.2907
 20
24.495
 11
42.995
 21
24.495
  0
LINE
  8
0
 10
42.995
 20
24.495
 11
42.995
 21
30.5
  0
LINE
  8
0
 10
42.995
 20
30.5
 11
30.7193
 21
30.5
  0
LINE
  8
0
 10
30.7193
 20
30.5
 11
30.7193
 21
24.495
  0
LINE
  8
0
 10
30.7193
 20
24.495
 11
18.4236
 21
24.495
  0
LINE
  8
0
 10
18.4236
 20
24.495
 11
18.4236
 21
30.5
  0
LINE
  8
0
 10
18.4236
 20
30.5
 11
6.14784
 21
30.5
  0
LINE
  8
0
 10
6.14784
 20
30.5
 11
6.14784
 21
24.495
  0
LINE
  8
0
 10
6.14784
 20
24.495
 11
-6.14784
 21
24.495
  0
LINE
  8
0
 10
-6.14784
 20
24.495
 11
-6.14784
 21
30.5
  0
LINE
  8
0
 10
-6.14784
 20
30.5
 11
-18.4236
 21
30.5
  0
LINE
  8
0
 10
-18.4236
 20
30.5
 11
-18.4236
 21
24.495
  0
LINE
  8
0
 10
-18.4236
 20
24.495
 11
-30.7193
 21
24.495
  0
LINE
  8
0
 10
-30.7193
 20
24.495
 11
-30.7193
 21
30.5
  0
LINE
  8
0
 10
-30.7193
 20
30.5
 11
-42.995
 21
30.5
  0
LINE
  8
0
 10
-42.995
 20
30.5
 11
-42.995
 21
24.495
  0
LINE
  8
0
 10
-42.995
 20
24.495
 11
-55.2907
 21
24.495
  0
LINE
  8
0
 10
-55.2907
 20
24.495
 11
-55.2907
 21
30.5
  0
LINE
  8
0
 10
-55.2907
 20
30.5
 11
-67.5664
 21
30.5
  0
LINE
  8
0
 10
-67.5664
 20
30.5
 11
-67.5664
 21
24.495
  0
LINE
  8
0
 10
-67.5664
 20
24.495
 11
-79.8621
 21
24.495
  0
LINE
  8
0
 10
-79.8621
 20
24.495
 11
-79.8621
 21
30.5
  0
LINE
  8
0
 10
-79.8621
 20
30.5
 11
-92.1378
 21
30.5
  0
LINE
  8
0
 10
-92.1378
 20
30.5
 11
-92.1378
 21
24.495
  0
LINE
  8
0
 10
-92.1378
 20
24.495
 11
-104.434
 21
24.495
  0
LINE
  8
0
 10
-104.434
 20
24.495
 11
-104.434
 21
30.5
  0
LINE
  8
0
 10
-104.434
 20
30.5
 11
-116.709
 21
30.5
  0
LINE
  8
0
 10
-116.709
 20
30.5
 11
-116.709
 21
24.495
  0
LINE
  8
0
 10
-116.709
 20
24.495
 11
-129.005
 21
24.495
  0
LINE
  8
0
 10
-129.005
 20
24.495
 11
-129.005
 21
30.5
  0
LINE
  8
0
 10
-129.005
 20
30.5
 11
-141.281
 21
30.5
  0
LINE
  8
0
 10
-141.281
 20
30.5
 11
-141.281
 21
24.495
  0
LINE
  8
0
 10
-141.281
 20
24.495
 11
-153.576
 21
24.495
  0
LINE
  8
0
 10
-153.576
 20
24.495
 11
-153.576
 21
30.5
  0
LINE
  8
0
 10
-153.576
 20
30.5
 11
-165.852
 21
30.5
  0
LINE
  8
0
 10
-165.852
 20
30.5
 11
-165.852
 21
24.495
  0
LINE
  8
0
 10
-165.852
 20
24.495
 11
-178.148
 21
24.495
  0
LINE
  8
0
 10
-178.148
 20
24.495
 11
-178.148
 21
30.5
  0
LINE
  8
0
 10
-178.148
 20
30.5
 11
-190.424
 21
30.5
  0
LINE
  8
0
 10
-190.424
 20
30.5
 11
-190.424
 21
24.495
  0
LINE
  8
0
 10
-190.424
 20
24.495
 11
-202.719
 21
24.495
  0
LINE
  8
0
 10
-202.719
 20
24.495
 11
-202.719
 21
30.5
  0
LINE
  8
0
 10
-202.719
 20
30.5
 11
-215
 21
30.5
  0
LINE
  8
0
 10
-215
 20
30.5
 11
-215
 21
18.305
  0
LINE
  8
0
 10
-215
 20
18.305
 11
-208.995
 21
18.305
  0
LINE
  8
0
 10
-208.995
 20
18.305
 11
-208.995
 21
6.09499
  0
LINE
  8
0
 10
-208.995
 20
6.09499
 11
-215
 21
6.09499
  0
LINE
  8
0
 10
-215
 20
6.09499
 11
-215
 21
-6.09499
  0
LINE
  8
0
 10
-215
 20
-6.09499
 11
-208.995
 21
-6.09499
  0
LINE
  8
0
 10
-208.995
 20
-6.09499
 11
-208.995
 21
-18.305
  0
LINE
  8
0
 10
-208.995
 20
-18.305
 11
-215
 21
-18.305
  0
LINE
  8
0
 10
-215
 20
-18.305
 11
-215
 21
-30.5
  0
LINE
  8
0
 10
-215
 20
-30.5
 11
-202.719
 21
-30.5
  0
LINE
  8
0
 10
-202.719
 20
-30.5
 11
-202.719
 21
-24.495
  0
LINE
  8
0
 10
-87.5
 20
-18.5
 11
-87.5
 21
18.5
  0
LINE
  8
0
 10
-87.5
 20
18.5
 11
87.5
 21
18.5
  0
LINE
  8
0
 10
87.5
 20
18.5
 11
87.5
 21
-18.5
  0
LINE
  8
0
 10
87.5
 20
-18.5
 11
-87.5
 21
-18.5
  0
LINE
  8
0
 10
106.776
 20
-18.9029
 11
106.44
 21
-18.8568
  0
LINE
  8
0
 10
106.44
 20
-18.8568
 11
106.131
 21
-18.7798
  0
LINE
  8
0
 10
106.131
 20
-18.7798
 11
105.849
 21
-18.6721
  0
LINE
  8
0
 10
105.849
 20
-18.6721
 11
105.596
 21
-18.5336
  0
LINE
  8
0
 10
105.596
 20
-18.5336
 11
105.37
 21
-18.3643
  0
LINE
  8
0
 10
105.37
 20
-18.3643
 11
105.171
 21
-18.1642
  0
LINE
  8
0
 10
105.171
 20
-18.1642
 11
105
 21
-17.933
  0
LINE
  8
0
 10
105
 20
-17.933
 11
104.855
 21
-17.67
  0
LINE
  8
0
 10
104.855
 20
-17.67
 11
104.737
 21
-17.3754
  0
LINE
  8
0
 10
104.737
 20
-17.3754
 11
104.644
 21
-17.0492
  0
LINE
  8
0
 10
104.644
 20
-17.0492
 11
104.579
 21
-16.6912
  0
LINE
  8
0
 10
104.579
 20
-16.6912
 11
104.539
 21
-16.3016
  0
LINE
  8
0
 10
104.539
 20
-16.3016
 11
104.526
 21
-15.8803
  0
LINE
  8
0
 10
104.526
 20
-15.8803
 11
104.54
 21
-15.4714
  0
LINE
  8
0
 10
104.54
 20
-15.4714
 11
104.581
 21
-15.091
  0
LINE
  8
0
 10
104.581
 20
-15.091
 11
104.651
 21
-14.739
  0
LINE
  8
0
 10
104.651
 20
-14.739
 11
104.748
 21
-14.4154
  0
LINE
  8
0
 10
104.748
 20
-14.4154
 11
104.873
 21
-14.1203
  0
LINE
  8
0
 10
104.873
 20
-14.1203
 11
105.026
 21
-13.8537
  0
LINE
  8
0
 10
105.026
 20
-13.8537
 11
105.207
 21
-13.6154
  0
LINE
  8
0
 10
105.207
 20
-13.6154
 11
105.414
 21
-13.4075
  0
LINE
  8
0
 10
105.414
 20
-13.4075
 11
105.645
 21
-13.2315
  0
LINE
  8
0
 10
105.645
 20
-13.2315
 11
105.901
 21
-13.0875
  0
LINE
  8
0
 10
105.901
 20
-13.0875
 11
106.182
 21
-12.9755
  0
LINE
  8
0
 10
106.182
 20
-12.9755
 11
106.488
 21
-12.8955
  0
LINE
  8
0
 10
106.488
 20
-12.8955
 11
106.818
 21
-12.8475
  0
LINE
  8
0
 10
106.818
 20
-12.8475
 11
107.173
 21
-12.8315
  0
LINE
  8
0
 10
107.173
 20
-12.8315
 11
107.521
 21
-12.8477
  0
LINE
  8
0
 10
107.521
 20
-12.8477
 11
107.844
 21
-12.8962
  0
LINE
  8
0
 10
107.844
 20
-12.8962
 11
108.144
 21
-12.977
  0
LINE
  8
0
 10
108.144
 20
-12.977
 11
108.419
 21
-13.0901
  0
LINE
  8
0
 10
108.419
 20
-13.0901
 11
108.671
 21
-13.2356
  0
LINE
  8
0
 10
108.671
 20
-13.2356
 11
108.898
 21
-13.4134
  0
LINE
  8
0
 10
108.898
 20
-13.4134
 11
109.102
 21
-13.6235
  0
LINE
  8
0
 10
109.102
 20
-13.6235
 11
109.28
 21
-13.8636
  0
LINE
  8
0
 10
109.28
 20
-13.8636
 11
109.43
 21
-14.1311
  0
LINE
  8
0
 10
109.43
 20
-14.1311
 11
109.553
 21
-14.426
  0
LINE
  8
0
 10
109.553
 20
-14.426
 11
109.649
 21
-14.7484
  0
LINE
  8
0
 10
109.649
 20
-14.7484
 11
109.717
 21
-15.0983
  0
LINE
  8
0
 10
109.717
 20
-15.0983
 11
109.758
 21
-15.4756
  0
LINE
  8
0
 10
109.758
 20
-15.4756
 11
109.772
 21
-15.8803
  0
LINE
  8
0
 10
109.772
 20
-15.8803
 11
109.758
 21
-16.2975
  0
LINE
  8
0
 10
109.758
 20
-16.2975
 11
109.716
 21
-16.6839
  0
LINE
  8
0
 10
109.716
 20
-16.6839
 11
109.646
 21
-17.0397
  0
LINE
  8
0
 10
109.646
 20
-17.0397
 11
109.548
 21
-17.3648
  0
LINE
  8
0
 10
109.548
 20
-17.3648
 11
109.422
 21
-17.6592
  0
LINE
  8
0
 10
109.422
 20
-17.6592
 11
109.268
 21
-17.923
  0
LINE
  8
0
 10
109.268
 20
-17.923
 11
109.086
 21
-18.1561
  0
LINE
  8
0
 10
109.086
 20
-18.1561
 11
108.878
 21
-18.3583
  0
LINE
  8
0
 10
108.878
 20
-18.3583
 11
108.647
 21
-18.5294
  0
LINE
  8
0
 10
108.647
 20
-18.5294
 11
108.392
 21
-18.6694
  0
LINE
  8
0
 10
108.392
 20
-18.6694
 11
108.114
 21
-18.7783
  0
LINE
  8
0
 10
108.114
 20
-18.7783
 11
107.813
 21
-18.8561
  0
LINE
  8
0
 10
107.813
 20
-18.8561
 11
107.489
 21
-18.9028
  0
LINE
  8
0
 10
107.489
 20
-18.9028
 11
107.141
 21
-18.9183
  0
LINE
  8
0
 10
107.141
 20
-18.9183
 11
106.776
 21
-18.9029
  0
LINE
  8
0
 10
107.355
 20
-18.1848
 11
107.568
 21
-18.149
  0
LINE
  8
0
 10
107.568
 20
-18.149
 11
107.762
 21
-18.0892
  0
LINE
  8
0
 10
107.762
 20
-18.0892
 11
107.938
 21
-18.0055
  0
LINE
  8
0
 10
107.938
 20
-18.0055
 11
108.096
 21
-17.8979
  0
LINE
  8
0
 10
108.096
 20
-17.8979
 11
108.235
 21
-17.7663
  0
LINE
  8
0
 10
108.235
 20
-17.7663
 11
108.356
 21
-17.6109
  0
LINE
  8
0
 10
108.356
 20
-17.6109
 11
108.46
 21
-17.4321
  0
LINE
  8
0
 10
108.46
 20
-17.4321
 11
108.547
 21
-17.2305
  0
LINE
  8
0
 10
108.547
 20
-17.2305
 11
108.619
 21
-17.0061
  0
LINE
  8
0
 10
108.619
 20
-17.0061
 11
108.675
 21
-16.7589
  0
LINE
  8
0
 10
108.675
 20
-16.7589
 11
108.715
 21
-16.4888
  0
LINE
  8
0
 10
108.715
 20
-16.4888
 11
108.739
 21
-16.196
  0
LINE
  8
0
 10
108.739
 20
-16.196
 11
108.746
 21
-15.8803
  0
LINE
  8
0
 10
108.746
 20
-15.8803
 11
108.739
 21
-15.566
  0
LINE
  8
0
 10
108.739
 20
-15.566
 11
108.715
 21
-15.2738
  0
LINE
  8
0
 10
108.715
 20
-15.2738
 11
108.675
 21
-15.004
  0
LINE
  8
0
 10
108.675
 20
-15.004
 11
108.619
 21
-14.7564
  0
LINE
  8
0
 10
108.619
 20
-14.7564
 11
108.547
 21
-14.531
  0
LINE
  8
0
 10
108.547
 20
-14.531
 11
108.46
 21
-14.3279
  0
LINE
  8
0
 10
108.46
 20
-14.3279
 11
108.356
 21
-14.147
  0
LINE
  8
0
 10
108.356
 20
-14.147
 11
108.236
 21
-13.9895
  0
LINE
  8
0
 10
108.236
 20
-13.9895
 11
108.101
 21
-13.8561
  0
LINE
  8
0
 10
108.101
 20
-13.8561
 11
107.949
 21
-13.747
  0
LINE
  8
0
 10
107.949
 20
-13.747
 11
107.782
 21
-13.6622
  0
LINE
  8
0
 10
107.782
 20
-13.6622
 11
107.599
 21
-13.6015
  0
LINE
  8
0
 10
107.599
 20
-13.6015
 11
107.399
 21
-13.5652
  0
LINE
  8
0
 10
107.399
 20
-13.5652
 11
107.184
 21
-13.5531
  0
LINE
  8
0
 10
107.184
 20
-13.5531
 11
106.947
 21
-13.5649
  0
LINE
  8
0
 10
106.947
 20
-13.5649
 11
106.73
 21
-13.6004
  0
LINE
  8
0
 10
106.73
 20
-13.6004
 11
106.532
 21
-13.6597
  0
LINE
  8
0
 10
106.532
 20
-13.6597
 11
106.354
 21
-13.7426
  0
LINE
  8
0
 10
106.354
 20
-13.7426
 11
106.195
 21
-13.8492
  0
LINE
  8
0
 10
106.195
 20
-13.8492
 11
106.056
 21
-13.9795
  0
LINE
  8
0
 10
106.056
 20
-13.9795
 11
105.936
 21
-14.1335
  0
LINE
  8
0
 10
105.936
 20
-14.1335
 11
105.834
 21
-14.3113
  0
LINE
  8
0
 10
105.834
 20
-14.3113
 11
105.748
 21
-14.5131
  0
LINE
  8
0
 10
105.748
 20
-14.5131
 11
105.677
 21
-14.7387
  0
LINE
  8
0
 10
105.677
 20
-14.7387
 11
105.622
 21
-14.9882
  0
LINE
  8
0
 10
105.622
 20
-14.9882
 11
105.583
 21
-15.2617
  0
LINE
  8
0
 10
105.583
 20
-15.2617
 11
105.559
 21
-15.5591
  0
LINE
  8
0
 10
105.559
 20
-15.5591
 11
105.551
 21
-15.8803
  0
LINE
  8
0
 10
105.551
 20
-15.8803
 11
105.559
 21
-16.2015
  0
LINE
  8
0
 10
105.559
 20
-16.2015
 11
105.581
 21
-16.4986
  0
LINE
  8
0
 10
105.581
 20
-16.4986
 11
105.619
 21
-16.7715
  0
LINE
  8
0
 10
105.619
 20
-16.7715
 11
105.672
 21
-17.0202
  0
LINE
  8
0
 10
105.672
 20
-17.0202
 11
105.741
 21
-17.2449
  0
LINE
  8
0
 10
105.741
 20
-17.2449
 11
105.824
 21
-17.4454
  0
LINE
  8
0
 10
105.824
 20
-17.4454
 11
105.923
 21
-17.6217
  0
LINE
  8
0
 10
105.923
 20
-17.6217
 11
106.038
 21
-17.7743
  0
LINE
  8
0
 10
106.038
 20
-17.7743
 11
106.173
 21
-17.9034
  0
LINE
  8
0
 10
106.173
 20
-17.9034
 11
106.326
 21
-18.009
  0
LINE
  8
0
 10
106.326
 20
-18.009
 11
106.497
 21
-18.0912
  0
LINE
  8
0
 10
106.497
 20
-18.0912
 11
106.688
 21
-18.1499
  0
LINE
  8
0
 10
106.688
 20
-18.1499
 11
106.897
 21
-18.1851
  0
LINE
  8
0
 10
106.897
 20
-18.1851
 11
107.124
 21
-18.1968
  0
LINE
  8
0
 10
107.124
 20
-18.1968
 11
107.355
 21
-18.1848
  0
LINE
  8
0
 10
94.5354
 20
-20.3397
 11
94.5354
 21
-18.8098
  0
LINE
  8
0
 10
94.5354
 20
-18.8098
 11
92.1918
 21
-18.8098
  0
LINE
  8
0
 10
92.1918
 20
-18.8098
 11
92.1918
 21
-18.0395
  0
LINE
  8
0
 10
92.1918
 20
-18.0395
 11
94.5354
 21
-18.0395
  0
LINE
  8
0
 10
94.5354
 20
-18.0395
 11
94.5354
 21
-14.5024
  0
LINE
  8
0
 10
94.5354
 20
-14.5024
 11
94.5307
 21
-14.3845
  0
LINE
  8
0
 10
94.5307
 20
-14.3845
 11
94.5166
 21
-14.2757
  0
LINE
  8
0
 10
94.5166
 20
-14.2757
 11
94.4931
 21
-14.1759
  0
LINE
  8
0
 10
94.4931
 20
-14.1759
 11
94.4601
 21
-14.0853
  0
LINE
  8
0
 10
94.4601
 20
-14.0853
 11
94.4178
 21
-14.0036
  0
LINE
  8
0
 10
94.4178
 20
-14.0036
 11
94.366
 21
-13.9311
  0
LINE
  8
0
 10
94.366
 20
-13.9311
 11
94.3049
 21
-13.8677
  0
LINE
  8
0
 10
94.3049
 20
-13.8677
 11
94.233
 21
-13.813
  0
LINE
  8
0
 10
94.233
 20
-13.813
 11
94.149
 21
-13.7667
  0
LINE
  8
0
 10
94.149
 20
-13.7667
 11
94.0529
 21
-13.7289
  0
LINE
  8
0
 10
94.0529
 20
-13.7289
 11
93.9448
 21
-13.6994
  0
LINE
  8
0
 10
93.9448
 20
-13.6994
 11
93.8246
 21
-13.6784
  0
LINE
  8
0
 10
93.8246
 20
-13.6784
 11
93.6924
 21
-13.6657
  0
LINE
  8
0
 10
93.6924
 20
-13.6657
 11
93.5481
 21
-13.6615
  0
LINE
  8
0
 10
93.5481
 20
-13.6615
 11
93.3372
 21
-13.6653
  0
LINE
  8
0
 10
93.3372
 20
-13.6653
 11
93.1198
 21
-13.6766
  0
LINE
  8
0
 10
93.1198
 20
-13.6766
 11
92.8961
 21
-13.6954
  0
LINE
  8
0
 10
92.8961
 20
-13.6954
 11
92.6659
 21
-13.7218
  0
LINE
  8
0
 10
92.6659
 20
-13.7218
 11
92.4293
 21
-13.7556
  0
LINE
  8
0
 10
92.4293
 20
-13.7556
 11
92.1863
 21
-13.7971
  0
LINE
  8
0
 10
92.1863
 20
-13.7971
 11
91.9369
 21
-13.846
  0
LINE
  8
0
 10
91.9369
 20
-13.846
 11
91.9369
 21
-13.1027
  0
LINE
  8
0
 10
91.9369
 20
-13.1027
 11
92.1985
 21
-13.0365
  0
LINE
  8
0
 10
92.1985
 20
-13.0365
 11
92.4594
 21
-12.9805
  0
LINE
  8
0
 10
92.4594
 20
-12.9805
 11
92.7197
 21
-12.9347
  0
LINE
  8
0
 10
92.7197
 20
-12.9347
 11
92.9793
 21
-12.899
  0
LINE
  8
0
 10
92.9793
 20
-12.899
 11
93.2383
 21
-12.8736
  0
LINE
  8
0
 10
93.2383
 20
-12.8736
 11
93.4966
 21
-12.8583
  0
LINE
  8
0
 10
93.4966
 20
-12.8583
 11
93.7542
 21
-12.8532
  0
LINE
  8
0
 10
93.7542
 20
-12.8532
 11
93.9964
 21
-12.8608
  0
LINE
  8
0
 10
93.9964
 20
-12.8608
 11
94.2205
 21
-12.8835
  0
LINE
  8
0
 10
94.2205
 20
-12.8835
 11
94.4268
 21
-12.9215
  0
LINE
  8
0
 10
94.4268
 20
-12.9215
 11
94.6151
 21
-12.9745
  0
LINE
  8
0
 10
94.6151
 20
-12.9745
 11
94.7855
 21
-13.0428
  0
LINE
  8
0
 10
94.7855
 20
-13.0428
 11
94.9379
 21
-13.1262
  0
LINE
  8
0
 10
94.9379
 20
-13.1262
 11
95.0725
 21
-13.2248
  0
LINE
  8
0
 10
95.0725
 20
-13.2248
 11
95.1891
 21
-13.3398
  0
LINE
  8
0
 10
95.1891
 20
-13.3398
 11
95.2877
 21
-13.4724
  0
LINE
  8
0
 10
95.2877
 20
-13.4724
 11
95.3684
 21
-13.6226
  0
LINE
  8
0
 10
95.3684
 20
-13.6226
 11
95.4312
 21
-13.7903
  0
LINE
  8
0
 10
95.4312
 20
-13.7903
 11
95.476
 21
-13.9758
  0
LINE
  8
0
 10
95.476
 20
-13.9758
 11
95.5029
 21
-14.1788
  0
LINE
  8
0
 10
95.5029
 20
-14.1788
 11
95.5119
 21
-14.3994
  0
LINE
  8
0
 10
95.5119
 20
-14.3994
 11
95.5119
 21
-18.0395
  0
LINE
  8
0
 10
95.5119
 20
-18.0395
 11
96.4234
 21
-18.0395
  0
LINE
  8
0
 10
96.4234
 20
-18.0395
 11
96.4234
 21
-18.8098
  0
LINE
  8
0
 10
96.4234
 20
-18.8098
 11
95.501
 21
-18.8098
  0
LINE
  8
0
 10
95.501
 20
-18.8098
 11
95.1864
 21
-20.3397
  0
LINE
  8
0
 10
95.1864
 20
-20.3397
 11
94.5354
 21
-20.3397
  0
LINE
  8
0
 10
112.276
 20
-18.9164
 11
112.115
 21
-18.9108
  0
LINE
  8
0
 10
112.115
 20
-18.9108
 11
111.955
 21
-18.9014
  0
LINE
  8
0
 10
111.955
 20
-18.9014
 11
111.796
 21
-18.8882
  0
LINE
  8
0
 10
111.796
 20
-18.8882
 11
111.636
 21
-18.8713
  0
LINE
  8
0
 10
111.636
 20
-18.8713
 11
111.478
 21
-18.8506
  0
LINE
  8
0
 10
111.478
 20
-18.8506
 11
111.319
 21
-18.8262
  0
LINE
  8
0
 10
111.319
 20
-18.8262
 11
111.319
 21
-17.9202
  0
LINE
  8
0
 10
111.319
 20
-17.9202
 11
111.492
 21
-17.9475
  0
LINE
  8
0
 10
111.492
 20
-17.9475
 11
111.661
 21
-17.9706
  0
LINE
  8
0
 10
111.661
 20
-17.9706
 11
111.828
 21
-17.9895
  0
LINE
  8
0
 10
111.828
 20
-17.9895
 11
111.993
 21
-18.0043
  0
LINE
  8
0
 10
111.993
 20
-18.0043
 11
112.154
 21
-18.0148
  0
LINE
  8
0
 10
112.154
 20
-18.0148
 11
112.313
 21
-18.0211
  0
LINE
  8
0
 10
112.313
 20
-18.0211
 11
112.469
 21
-18.0232
  0
LINE
  8
0
 10
112.469
 20
-18.0232
 11
112.712
 21
-18.0098
  0
LINE
  8
0
 10
112.712
 20
-18.0098
 11
112.941
 21
-17.9696
  0
LINE
  8
0
 10
112.941
 20
-17.9696
 11
113.156
 21
-17.9026
  0
LINE
  8
0
 10
113.156
 20
-17.9026
 11
113.358
 21
-17.8089
  0
LINE
  8
0
 10
113.358
 20
-17.8089
 11
113.546
 21
-17.6883
  0
LINE
  8
0
 10
113.546
 20
-17.6883
 11
113.72
 21
-17.5409
  0
LINE
  8
0
 10
113.72
 20
-17.5409
 11
113.88
 21
-17.3668
  0
LINE
  8
0
 10
113.88
 20
-17.3668
 11
114.023
 21
-17.1719
  0
LINE
  8
0
 10
114.023
 20
-17.1719
 11
114.143
 21
-16.9625
  0
LINE
  8
0
 10
114.143
 20
-16.9625
 11
114.242
 21
-16.7384
  0
LINE
  8
0
 10
114.242
 20
-16.7384
 11
114.318
 21
-16.4997
  0
LINE
  8
0
 10
114.318
 20
-16.4997
 11
114.373
 21
-16.2464
  0
LINE
  8
0
 10
114.373
 20
-16.2464
 11
114.406
 21
-15.9785
  0
LINE
  8
0
 10
114.406
 20
-15.9785
 11
114.417
 21
-15.6959
  0
LINE
  8
0
 10
114.417
 20
-15.6959
 11
114.417
 21
-12.94
  0
LINE
  8
0
 10
114.417
 20
-12.94
 11
115.394
 21
-12.94
  0
LINE
  8
0
 10
115.394
 20
-12.94
 11
115.394
 21
-16.743
  0
LINE
  8
0
 10
115.394
 20
-16.743
 11
115.395
 21
-16.8637
  0
LINE
  8
0
 10
115.395
 20
-16.8637
 11
115.4
 21
-16.9905
  0
LINE
  8
0
 10
115.4
 20
-16.9905
 11
115.407
 21
-17.1232
  0
LINE
  8
0
 10
115.407
 20
-17.1232
 11
115.417
 21
-17.2619
  0
LINE
  8
0
 10
115.417
 20
-17.2619
 11
115.431
 21
-17.4066
  0
LINE
  8
0
 10
115.431
 20
-17.4066
 11
115.447
 21
-17.5573
  0
LINE
  8
0
 10
115.447
 20
-17.5573
 11
115.467
 21
-17.714
  0
LINE
  8
0
 10
115.467
 20
-17.714
 11
115.489
 21
-17.8732
  0
LINE
  8
0
 10
115.489
 20
-17.8732
 11
115.514
 21
-18.0315
  0
LINE
  8
0
 10
115.514
 20
-18.0315
 11
115.541
 21
-18.189
  0
LINE
  8
0
 10
115.541
 20
-18.189
 11
115.571
 21
-18.3455
  0
LINE
  8
0
 10
115.571
 20
-18.3455
 11
115.603
 21
-18.5012
  0
LINE
  8
0
 10
115.603
 20
-18.5012
 11
115.638
 21
-18.6559
  0
LINE
  8
0
 10
115.638
 20
-18.6559
 11
115.676
 21
-18.8098
  0
LINE
  8
0
 10
115.676
 20
-18.8098
 11
114.748
 21
-18.8098
  0
LINE
  8
0
 10
114.748
 20
-18.8098
 11
114.69
 21
-18.5988
  0
LINE
  8
0
 10
114.69
 20
-18.5988
 11
114.638
 21
-18.3936
  0
LINE
  8
0
 10
114.638
 20
-18.3936
 11
114.594
 21
-18.194
  0
LINE
  8
0
 10
114.594
 20
-18.194
 11
114.557
 21
-18.0003
  0
LINE
  8
0
 10
114.557
 20
-18.0003
 11
114.527
 21
-17.8123
  0
LINE
  8
0
 10
114.527
 20
-17.8123
 11
114.504
 21
-17.6301
  0
LINE
  8
0
 10
114.504
 20
-17.6301
 11
114.488
 21
-17.4536
  0
LINE
  8
0
 10
114.488
 20
-17.4536
 11
114.46
 21
-17.4536
  0
LINE
  8
0
 10
114.46
 20
-17.4536
 11
114.383
 21
-17.6206
  0
LINE
  8
0
 10
114.383
 20
-17.6206
 11
114.306
 21
-17.7744
  0
LINE
  8
0
 10
114.306
 20
-17.7744
 11
114.23
 21
-17.9151
  0
LINE
  8
0
 10
114.23
 20
-17.9151
 11
114.154
 21
-18.0426
  0
LINE
  8
0
 10
114.154
 20
-18.0426
 11
114.079
 21
-18.1569
  0
LINE
  8
0
 10
114.079
 20
-18.1569
 11
114.003
 21
-18.258
  0
LINE
  8
0
 10
114.003
 20
-18.258
 11
113.929
 21
-18.346
  0
LINE
  8
0
 10
113.929
 20
-18.346
 11
113.852
 21
-18.4245
  0
LINE
  8
0
 10
113.852
 20
-18.4245
 11
113.772
 21
-18.4972
  0
LINE
  8
0
 10
113.772
 20
-18.4972
 11
113.688
 21
-18.5642
  0
LINE
  8
0
 10
113.688
 20
-18.5642
 11
113.599
 21
-18.6254
  0
LINE
  8
0
 10
113.599
 20
-18.6254
 11
113.507
 21
-18.6809
  0
LINE
  8
0
 10
113.507
 20
-18.6809
 11
113.411
 21
-18.7306
  0
LINE
  8
0
 10
113.411
 20
-18.7306
 11
113.31
 21
-18.7746
  0
LINE
  8
0
 10
113.31
 20
-18.7746
 11
113.205
 21
-18.8127
  0
LINE
  8
0
 10
113.205
 20
-18.8127
 11
113.093
 21
-18.845
  0
LINE
  8
0
 10
113.093
 20
-18.845
 11
112.975
 21
-18.8714
  0
LINE
  8
0
 10
112.975
 20
-18.8714
 11
112.85
 21
-18.8919
  0
LINE
  8
0
 10
112.85
 20
-18.8919
 11
112.719
 21
-18.9066
  0
LINE
  8
0
 10
112.719
 20
-18.9066
 11
112.581
 21
-18.9154
  0
LINE
  8
0
 10
112.581
 20
-18.9154
 11
112.437
 21
-18.9183
  0
LINE
  8
0
 10
112.437
 20
-18.9183
 11
112.276
 21
-18.9164
  0
LINE
  8
0
 10
99.8771
 20
-18.908
 11
99.6382
 21
-18.8769
  0
LINE
  8
0
 10
99.6382
 20
-18.8769
 11
99.4187
 21
-18.8251
  0
LINE
  8
0
 10
99.4187
 20
-18.8251
 11
99.2188
 21
-18.7527
  0
LINE
  8
0
 10
99.2188
 20
-18.7527
 11
99.0383
 21
-18.6595
  0
LINE
  8
0
 10
99.0383
 20
-18.6595
 11
98.8774
 21
-18.5456
  0
LINE
  8
0
 10
98.8774
 20
-18.5456
 11
98.7359
 21
-18.411
  0
LINE
  8
0
 10
98.7359
 20
-18.411
 11
98.6135
 21
-18.255
  0
LINE
  8
0
 10
98.6135
 20
-18.255
 11
98.51
 21
-18.0767
  0
LINE
  8
0
 10
98.51
 20
-18.0767
 11
98.4253
 21
-17.8761
  0
LINE
  8
0
 10
98.4253
 20
-17.8761
 11
98.3595
 21
-17.6534
  0
LINE
  8
0
 10
98.3595
 20
-17.6534
 11
98.3124
 21
-17.4083
  0
LINE
  8
0
 10
98.3124
 20
-17.4083
 11
98.2842
 21
-17.141
  0
LINE
  8
0
 10
98.2842
 20
-17.141
 11
98.2747
 21
-16.8514
  0
LINE
  8
0
 10
98.2747
 20
-16.8514
 11
98.2747
 21
-12.94
  0
LINE
  8
0
 10
98.2747
 20
-12.94
 11
99.2567
 21
-12.94
  0
LINE
  8
0
 10
99.2567
 20
-12.94
 11
99.2567
 21
-16.7104
  0
LINE
  8
0
 10
99.2567
 20
-16.7104
 11
99.2625
 21
-16.9134
  0
LINE
  8
0
 10
99.2625
 20
-16.9134
 11
99.2799
 21
-17.101
  0
LINE
  8
0
 10
99.2799
 20
-17.101
 11
99.309
 21
-17.273
  0
LINE
  8
0
 10
99.309
 20
-17.273
 11
99.3497
 21
-17.4296
  0
LINE
  8
0
 10
99.3497
 20
-17.4296
 11
99.402
 21
-17.5706
  0
LINE
  8
0
 10
99.402
 20
-17.5706
 11
99.4659
 21
-17.6961
  0
LINE
  8
0
 10
99.4659
 20
-17.6961
 11
99.5415
 21
-17.8062
  0
LINE
  8
0
 10
99.5415
 20
-17.8062
 11
99.6298
 21
-17.9012
  0
LINE
  8
0
 10
99.6298
 20
-17.9012
 11
99.7319
 21
-17.9815
  0
LINE
  8
0
 10
99.7319
 20
-17.9815
 11
99.8479
 21
-18.0473
  0
LINE
  8
0
 10
99.8479
 20
-18.0473
 11
99.9777
 21
-18.0985
  0
LINE
  8
0
 10
99.9777
 20
-18.0985
 11
100.121
 21
-18.135
  0
LINE
  8
0
 10
100.121
 20
-18.135
 11
100.279
 21
-18.1569
  0
LINE
  8
0
 10
100.279
 20
-18.1569
 11
100.45
 21
-18.1642
  0
LINE
  8
0
 10
100.45
 20
-18.1642
 11
100.637
 21
-18.1542
  0
LINE
  8
0
 10
100.637
 20
-18.1542
 11
100.815
 21
-18.1242
  0
LINE
  8
0
 10
100.815
 20
-18.1242
 11
100.982
 21
-18.0741
  0
LINE
  8
0
 10
100.982
 20
-18.0741
 11
101.14
 21
-18.0039
  0
LINE
  8
0
 10
101.14
 20
-18.0039
 11
101.288
 21
-17.9137
  0
LINE
  8
0
 10
101.288
 20
-17.9137
 11
101.426
 21
-17.8035
  0
LINE
  8
0
 10
101.426
 20
-17.8035
 11
101.554
 21
-17.6733
  0
LINE
  8
0
 10
101.554
 20
-17.6733
 11
101.669
 21
-17.5259
  0
LINE
  8
0
 10
101.669
 20
-17.5259
 11
101.765
 21
-17.3642
  0
LINE
  8
0
 10
101.765
 20
-17.3642
 11
101.845
 21
-17.1882
  0
LINE
  8
0
 10
101.845
 20
-17.1882
 11
101.906
 21
-16.9979
  0
LINE
  8
0
 10
101.906
 20
-16.9979
 11
101.95
 21
-16.7934
  0
LINE
  8
0
 10
101.95
 20
-16.7934
 11
101.977
 21
-16.5745
  0
LINE
  8
0
 10
101.977
 20
-16.5745
 11
101.985
 21
-16.3414
  0
LINE
  8
0
 10
101.985
 20
-16.3414
 11
101.985
 21
-12.94
  0
LINE
  8
0
 10
101.985
 20
-12.94
 11
102.962
 21
-12.94
  0
LINE
  8
0
 10
102.962
 20
-12.94
 11
102.962
 21
-17.5566
  0
LINE
  8
0
 10
102.962
 20
-17.5566
 11
102.963
 21
-17.8333
  0
LINE
  8
0
 10
102.963
 20
-17.8333
 11
102.965
 21
-18.0775
  0
LINE
  8
0
 10
102.965
 20
-18.0775
 11
102.968
 21
-18.289
  0
LINE
  8
0
 10
102.968
 20
-18.289
 11
102.973
 21
-18.4681
  0
LINE
  8
0
 10
102.973
 20
-18.4681
 11
102.979
 21
-18.6145
  0
LINE
  8
0
 10
102.979
 20
-18.6145
 11
102.986
 21
-18.7285
  0
LINE
  8
0
 10
102.986
 20
-18.7285
 11
102.995
 21
-18.8098
  0
LINE
  8
0
 10
102.995
 20
-18.8098
 11
102.072
 21
-18.8098
  0
LINE
  8
0
 10
102.072
 20
-18.8098
 11
102.071
 21
-18.8002
  0
LINE
  8
0
 10
102.071
 20
-18.8002
 11
102.069
 21
-18.7868
  0
LINE
  8
0
 10
102.069
 20
-18.7868
 11
102.068
 21
-18.7696
  0
LINE
  8
0
 10
102.068
 20
-18.7696
 11
102.066
 21
-18.7487
  0
LINE
  8
0
 10
102.066
 20
-18.7487
 11
102.064
 21
-18.724
  0
LINE
  8
0
 10
102.064
 20
-18.724
 11
102.063
 21
-18.6956
  0
LINE
  8
0
 10
102.063
 20
-18.6956
 11
102.061
 21
-18.6633
  0
LINE
  8
0
 10
102.061
 20
-18.6633
 11
102.058
 21
-18.5923
  0
LINE
  8
0
 10
102.058
 20
-18.5923
 11
102.054
 21
-18.5154
  0
LINE
  8
0
 10
102.054
 20
-18.5154
 11
102.052
 21
-18.4748
  0
LINE
  8
0
 10
102.052
 20
-18.4748
 11
102.048
 21
-18.3894
  0
LINE
  8
0
 10
102.048
 20
-18.3894
 11
102.045
 21
-18.3396
  0
LINE
  8
0
 10
102.045
 20
-18.3396
 11
102.043
 21
-18.2787
  0
LINE
  8
0
 10
102.043
 20
-18.2787
 11
102.04
 21
-18.2065
  0
LINE
  8
0
 10
102.04
 20
-18.2065
 11
102.038
 21
-18.1232
  0
LINE
  8
0
 10
102.038
 20
-18.1232
 11
102.035
 21
-18.0288
  0
LINE
  8
0
 10
102.035
 20
-18.0288
 11
102.032
 21
-17.9231
  0
LINE
  8
0
 10
102.032
 20
-17.9231
 11
102.029
 21
-17.8062
  0
LINE
  8
0
 10
102.029
 20
-17.8062
 11
102.013
 21
-17.8062
  0
LINE
  8
0
 10
102.013
 20
-17.8062
 11
101.835
 21
-18.1013
  0
LINE
  8
0
 10
101.835
 20
-18.1013
 11
101.627
 21
-18.3509
  0
LINE
  8
0
 10
101.627
 20
-18.3509
 11
101.389
 21
-18.5552
  0
LINE
  8
0
 10
101.389
 20
-18.5552
 11
101.121
 21
-18.7141
  0
LINE
  8
0
 10
101.121
 20
-18.7141
 11
100.822
 21
-18.8275
  0
LINE
  8
0
 10
100.822
 20
-18.8275
 11
100.494
 21
-18.8956
  0
LINE
  8
0
 10
100.494
 20
-18.8956
 11
100.135
 21
-18.9183
  0
LINE
  8
0
 10
100.135
 20
-18.9183
 11
99.8771
 21
-18.908
  0
LINE
  8
0
 10
117.614
 20
-20.2583
 11
117.614
 21
-19.412
  0
LINE
  8
0
 10
117.614
 20
-19.412
 11
121.411
 21
-19.412
  0
LINE
  8
0
 10
121.411
 20
-19.412
 11
121.411
 21
-16.7321
  0
LINE
  8
0
 10
121.411
 20
-16.7321
 11
117.744
 21
-16.7321
  0
LINE
  8
0
 10
117.744
 20
-16.7321
 11
117.744
 21
-15.875
  0
LINE
  8
0
 10
117.744
 20
-15.875
 11
121.411
 21
-15.875
  0
LINE
  8
0
 10
121.411
 20
-15.875
 11
121.411
 21
-12.94
  0
LINE
  8
0
 10
121.411
 20
-12.94
 11
122.448
 21
-12.94
  0
LINE
  8
0
 10
122.448
 20
-12.94
 11
122.448
 21
-20.2583
  0
LINE
  8
0
 10
122.448
 20
-20.2583
 11
117.614
 21
-20.2583
  0
ENDSEC
  0
SECTION
  2
OBJECTS
  0
DICTIONARY
  0
ENDSEC
  0
EOF
