  0
SECTION
  2
BLOCKS
  0
ENDSEC
  0
SECTION
  2
ENTITIES
  0
LINE
  8
0
 10
-215
 20
94.195
 11
-215
 21
82.045
  0
LINE
  8
0
 10
-215
 20
82.045
 11
-208.995
 21
82.045
  0
LINE
  8
0
 10
-208.995
 20
82.045
 11
-208.995
 21
69.875
  0
LINE
  8
0
 10
-208.995
 20
69.875
 11
-215
 21
69.875
  0
LINE
  8
0
 10
-215
 20
69.875
 11
-215
 21
57.725
  0
LINE
  8
0
 10
-215
 20
57.725
 11
-208.995
 21
57.725
  0
LINE
  8
0
 10
-208.995
 20
57.725
 11
-208.995
 21
45.555
  0
LINE
  8
0
 10
-208.995
 20
45.555
 11
-215
 21
45.555
  0
LINE
  8
0
 10
-215
 20
45.555
 11
-215
 21
33.405
  0
LINE
  8
0
 10
-215
 20
33.405
 11
-208.995
 21
33.405
  0
LINE
  8
0
 10
-208.995
 20
33.405
 11
-208.995
 21
21.235
  0
LINE
  8
0
 10
-208.995
 20
21.235
 11
-215
 21
21.235
  0
LINE
  8
0
 10
-215
 20
21.235
 11
-215
 21
9.08499
  0
LINE
  8
0
 10
-215
 20
9.08499
 11
-208.995
 21
9.08499
  0
LINE
  8
0
 10
-208.995
 20
9.08499
 11
-208.995
 21
-3.08499
  0
LINE
  8
0
 10
-208.995
 20
-3.08499
 11
-215
 21
-3.08499
  0
LINE
  8
0
 10
-215
 20
-3.08499
 11
-215
 21
-15.235
  0
LINE
  8
0
 10
-215
 20
-15.235
 11
-208.995
 21
-15.235
  0
LINE
  8
0
 10
-208.995
 20
-15.235
 11
-208.995
 21
-27.405
  0
LINE
  8
0
 10
-208.995
 20
-27.405
 11
-215
 21
-27.405
  0
LINE
  8
0
 10
-215
 20
-27.405
 11
-215
 21
-39.555
  0
LINE
  8
0
 10
-215
 20
-39.555
 11
-208.995
 21
-39.555
  0
LINE
  8
0
 10
-208.995
 20
-39.555
 11
-208.995
 21
-51.725
  0
LINE
  8
0
 10
-208.995
 20
-51.725
 11
-215
 21
-51.725
  0
LINE
  8
0
 10
-215
 20
-51.725
 11
-215
 21
-63.875
  0
LINE
  8
0
 10
-215
 20
-63.875
 11
-208.995
 21
-63.875
  0
LINE
  8
0
 10
-208.995
 20
-63.875
 11
-208.995
 21
-76.045
  0
LINE
  8
0
 10
-208.995
 20
-76.045
 11
-215
 21
-76.045
  0
LINE
  8
0
 10
-215
 20
-76.045
 11
-215
 21
-88.195
  0
LINE
  8
0
 10
-215
 20
-88.195
 11
-208.995
 21
-88.195
  0
LINE
  8
0
 10
-208.995
 20
-88.195
 11
-208.995
 21
-100.365
  0
LINE
  8
0
 10
-208.995
 20
-100.365
 11
-215
 21
-100.365
  0
LINE
  8
0
 10
-215
 20
-100.365
 11
-215
 21
-112.515
  0
LINE
  8
0
 10
-215
 20
-112.515
 11
-208.995
 21
-112.515
  0
LINE
  8
0
 10
-208.995
 20
-112.515
 11
-208.995
 21
-124.685
  0
LINE
  8
0
 10
-208.995
 20
-124.685
 11
-215
 21
-124.685
  0
LINE
  8
0
 10
-215
 20
-124.685
 11
-215
 21
-136.835
  0
LINE
  8
0
 10
-215
 20
-136.835
 11
-208.995
 21
-136.835
  0
LINE
  8
0
 10
-208.995
 20
-136.835
 11
-208.995
 21
-148.995
  0
LINE
  8
0
 10
-208.995
 20
-148.995
 11
-202.709
 21
-148.995
  0
LINE
  8
0
 10
-202.709
 20
-148.995
 11
-202.709
 21
-155
  0
LINE
  8
0
 10
-202.709
 20
-155
 11
-190.434
 21
-155
  0
LINE
  8
0
 10
-190.434
 20
-155
 11
-190.434
 21
-148.995
  0
LINE
  8
0
 10
-190.434
 20
-148.995
 11
-178.138
 21
-148.995
  0
LINE
  8
0
 10
-178.138
 20
-148.995
 11
-178.138
 21
-155
  0
LINE
  8
0
 10
-178.138
 20
-155
 11
-165.862
 21
-155
  0
LINE
  8
0
 10
-165.862
 20
-155
 11
-165.862
 21
-148.995
  0
LINE
  8
0
 10
-165.862
 20
-148.995
 11
-153.566
 21
-148.995
  0
LINE
  8
0
 10
-153.566
 20
-148.995
 11
-153.566
 21
-155
  0
LINE
  8
0
 10
-153.566
 20
-155
 11
-141.291
 21
-155
  0
LINE
  8
0
 10
-141.291
 20
-155
 11
-141.291
 21
-148.995
  0
LINE
  8
0
 10
-141.291
 20
-148.995
 11
-128.995
 21
-148.995
  0
LINE
  8
0
 10
-128.995
 20
-148.995
 11
-128.995
 21
-155
  0
LINE
  8
0
 10
-128.995
 20
-155
 11
-116.719
 21
-155
  0
LINE
  8
0
 10
-116.719
 20
-155
 11
-116.719
 21
-148.995
  0
LINE
  8
0
 10
-116.719
 20
-148.995
 11
-104.424
 21
-148.995
  0
LINE
  8
0
 10
-104.424
 20
-148.995
 11
-104.424
 21
-155
  0
LINE
  8
0
 10
-104.424
 20
-155
 11
-92.1479
 21
-155
  0
LINE
  8
0
 10
-92.1479
 20
-155
 11
-92.1479
 21
-148.995
  0
LINE
  8
0
 10
-92.1479
 20
-148.995
 11
-79.8521
 21
-148.995
  0
LINE
  8
0
 10
-79.8521
 20
-148.995
 11
-79.8521
 21
-155
  0
LINE
  8
0
 10
-79.8521
 20
-155
 11
-67.5764
 21
-155
  0
LINE
  8
0
 10
-67.5764
 20
-155
 11
-67.5764
 21
-148.995
  0
LINE
  8
0
 10
-67.5764
 20
-148.995
 11
-55.2807
 21
-148.995
  0
LINE
  8
0
 10
-55.2807
 20
-148.995
 11
-55.2807
 21
-155
  0
LINE
  8
0
 10
-55.2807
 20
-155
 11
-43.005
 21
-155
  0
LINE
  8
0
 10
-43.005
 20
-155
 11
-43.005
 21
-148.995
  0
LINE
  8
0
 10
-43.005
 20
-148.995
 11
-30.7093
 21
-148.995
  0
LINE
  8
0
 10
-30.7093
 20
-148.995
 11
-30.7093
 21
-155
  0
LINE
  8
0
 10
-30.7093
 20
-155
 11
-18.4336
 21
-155
  0
LINE
  8
0
 10
-18.4336
 20
-155
 11
-18.4336
 21
-148.995
  0
LINE
  8
0
 10
-18.4336
 20
-148.995
 11
-6.13785
 21
-148.995
  0
LINE
  8
0
 10
-6.13785
 20
-148.995
 11
-6.13785
 21
-155
  0
LINE
  8
0
 10
-6.13785
 20
-155
 11
6.13785
 21
-155
  0
LINE
  8
0
 10
6.13785
 20
-155
 11
6.13785
 21
-148.995
  0
LINE
  8
0
 10
6.13785
 20
-148.995
 11
18.4336
 21
-148.995
  0
LINE
  8
0
 10
18.4336
 20
-148.995
 11
18.4336
 21
-155
  0
LINE
  8
0
 10
18.4336
 20
-155
 11
30.7093
 21
-155
  0
LINE
  8
0
 10
30.7093
 20
-155
 11
30.7093
 21
-148.995
  0
LINE
  8
0
 10
30.7093
 20
-148.995
 11
43.005
 21
-148.995
  0
LINE
  8
0
 10
43.005
 20
-148.995
 11
43.005
 21
-155
  0
LINE
  8
0
 10
43.005
 20
-155
 11
55.2807
 21
-155
  0
LINE
  8
0
 10
55.2807
 20
-155
 11
55.2807
 21
-148.995
  0
LINE
  8
0
 10
55.2807
 20
-148.995
 11
67.5764
 21
-148.995
  0
LINE
  8
0
 10
67.5764
 20
-148.995
 11
67.5764
 21
-155
  0
LINE
  8
0
 10
67.5764
 20
-155
 11
79.8521
 21
-155
  0
LINE
  8
0
 10
79.8521
 20
-155
 11
79.8521
 21
-148.995
  0
LINE
  8
0
 10
79.8521
 20
-148.995
 11
92.1479
 21
-148.995
  0
LINE
  8
0
 10
92.1479
 20
-148.995
 11
92.1479
 21
-155
  0
LINE
  8
0
 10
92.1479
 20
-155
 11
104.424
 21
-155
  0
LINE
  8
0
 10
104.424
 20
-155
 11
104.424
 21
-148.995
  0
LINE
  8
0
 10
104.424
 20
-148.995
 11
116.719
 21
-148.995
  0
LINE
  8
0
 10
116.719
 20
-148.995
 11
116.719
 21
-155
  0
LINE
  8
0
 10
116.719
 20
-155
 11
128.995
 21
-155
  0
LINE
  8
0
 10
128.995
 20
-155
 11
128.995
 21
-148.995
  0
LINE
  8
0
 10
128.995
 20
-148.995
 11
141.291
 21
-148.995
  0
LINE
  8
0
 10
141.291
 20
-148.995
 11
141.291
 21
-155
  0
LINE
  8
0
 10
141.291
 20
-155
 11
153.566
 21
-155
  0
LINE
  8
0
 10
153.566
 20
-155
 11
153.566
 21
-148.995
  0
LINE
  8
0
 10
153.566
 20
-148.995
 11
165.862
 21
-148.995
  0
LINE
  8
0
 10
165.862
 20
-148.995
 11
165.862
 21
-155
  0
LINE
  8
0
 10
165.862
 20
-155
 11
178.138
 21
-155
  0
LINE
  8
0
 10
178.138
 20
-155
 11
178.138
 21
-148.995
  0
LINE
  8
0
 10
178.138
 20
-148.995
 11
190.434
 21
-148.995
  0
LINE
  8
0
 10
190.434
 20
-148.995
 11
190.434
 21
-155
  0
LINE
  8
0
 10
190.434
 20
-155
 11
202.709
 21
-155
  0
LINE
  8
0
 10
202.709
 20
-155
 11
202.709
 21
-148.995
  0
LINE
  8
0
 10
202.709
 20
-148.995
 11
208.995
 21
-148.995
  0
LINE
  8
0
 10
208.995
 20
-148.995
 11
208.995
 21
-136.835
  0
LINE
  8
0
 10
208.995
 20
-136.835
 11
215
 21
-136.835
  0
LINE
  8
0
 10
215
 20
-136.835
 11
215
 21
-124.685
  0
LINE
  8
0
 10
215
 20
-124.685
 11
208.995
 21
-124.685
  0
LINE
  8
0
 10
208.995
 20
-124.685
 11
208.995
 21
-112.515
  0
LINE
  8
0
 10
208.995
 20
-112.515
 11
215
 21
-112.515
  0
LINE
  8
0
 10
215
 20
-112.515
 11
215
 21
-100.365
  0
LINE
  8
0
 10
215
 20
-100.365
 11
208.995
 21
-100.365
  0
LINE
  8
0
 10
208.995
 20
-100.365
 11
208.995
 21
-88.195
  0
LINE
  8
0
 10
208.995
 20
-88.195
 11
215
 21
-88.195
  0
LINE
  8
0
 10
215
 20
-88.195
 11
215
 21
-76.045
  0
LINE
  8
0
 10
215
 20
-76.045
 11
208.995
 21
-76.045
  0
LINE
  8
0
 10
208.995
 20
-76.045
 11
208.995
 21
-63.875
  0
LINE
  8
0
 10
208.995
 20
-63.875
 11
215
 21
-63.875
  0
LINE
  8
0
 10
215
 20
-63.875
 11
215
 21
-51.725
  0
LINE
  8
0
 10
215
 20
-51.725
 11
208.995
 21
-51.725
  0
LINE
  8
0
 10
208.995
 20
-51.725
 11
208.995
 21
-39.555
  0
LINE
  8
0
 10
208.995
 20
-39.555
 11
215
 21
-39.555
  0
LINE
  8
0
 10
215
 20
-39.555
 11
215
 21
-27.405
  0
LINE
  8
0
 10
215
 20
-27.405
 11
208.995
 21
-27.405
  0
LINE
  8
0
 10
208.995
 20
-27.405
 11
208.995
 21
-15.235
  0
LINE
  8
0
 10
208.995
 20
-15.235
 11
215
 21
-15.235
  0
LINE
  8
0
 10
215
 20
-15.235
 11
215
 21
-3.08499
  0
LINE
  8
0
 10
215
 20
-3.08499
 11
208.995
 21
-3.08499
  0
LINE
  8
0
 10
208.995
 20
-3.08499
 11
208.995
 21
9.08499
  0
LINE
  8
0
 10
208.995
 20
9.08499
 11
215
 21
9.08499
  0
LINE
  8
0
 10
215
 20
9.08499
 11
215
 21
21.235
  0
LINE
  8
0
 10
215
 20
21.235
 11
208.995
 21
21.235
  0
LINE
  8
0
 10
208.995
 20
21.235
 11
208.995
 21
33.405
  0
LINE
  8
0
 10
208.995
 20
33.405
 11
215
 21
33.405
  0
LINE
  8
0
 10
215
 20
33.405
 11
215
 21
45.555
  0
LINE
  8
0
 10
215
 20
45.555
 11
208.995
 21
45.555
  0
LINE
  8
0
 10
208.995
 20
45.555
 11
208.995
 21
57.725
  0
LINE
  8
0
 10
208.995
 20
57.725
 11
215
 21
57.725
  0
LINE
  8
0
 10
215
 20
57.725
 11
215
 21
69.875
  0
LINE
  8
0
 10
215
 20
69.875
 11
208.995
 21
69.875
  0
LINE
  8
0
 10
208.995
 20
69.875
 11
208.995
 21
82.045
  0
LINE
  8
0
 10
208.995
 20
82.045
 11
215
 21
82.045
  0
LINE
  8
0
 10
215
 20
82.045
 11
215
 21
94.195
  0
LINE
  8
0
 10
215
 20
94.195
 11
208.995
 21
94.195
  0
LINE
  8
0
 10
208.995
 20
94.195
 11
208.995
 21
106.365
  0
LINE
  8
0
 10
208.995
 20
106.365
 11
215
 21
106.365
  0
LINE
  8
0
 10
215
 20
106.365
 11
215
 21
118.515
  0
LINE
  8
0
 10
215
 20
118.515
 11
208.995
 21
118.515
  0
LINE
  8
0
 10
208.995
 20
118.515
 11
208.995
 21
130.685
  0
LINE
  8
0
 10
208.995
 20
130.685
 11
215
 21
130.685
  0
LINE
  8
0
 10
215
 20
130.685
 11
215
 21
142.835
  0
LINE
  8
0
 10
215
 20
142.835
 11
208.995
 21
142.835
  0
LINE
  8
0
 10
208.995
 20
142.835
 11
208.995
 21
155
  0
LINE
  8
0
 10
208.995
 20
155
 11
-208.995
 21
155
  0
LINE
  8
0
 10
-208.995
 20
155
 11
-208.995
 21
142.835
  0
LINE
  8
0
 10
-208.995
 20
142.835
 11
-215
 21
142.835
  0
LINE
  8
0
 10
-215
 20
142.835
 11
-215
 21
130.685
  0
LINE
  8
0
 10
-215
 20
130.685
 11
-208.995
 21
130.685
  0
LINE
  8
0
 10
-208.995
 20
130.685
 11
-208.995
 21
118.515
  0
LINE
  8
0
 10
-208.995
 20
118.515
 11
-215
 21
118.515
  0
LINE
  8
0
 10
-215
 20
118.515
 11
-215
 21
106.365
  0
LINE
  8
0
 10
-215
 20
106.365
 11
-208.995
 21
106.365
  0
LINE
  8
0
 10
-208.995
 20
106.365
 11
-208.995
 21
94.195
  0
LINE
  8
0
 10
-208.995
 20
94.195
 11
-215
 21
94.195
  0
LINE
  8
0
 10
-6.10532
 20
-144.527
 11
-6.37868
 21
-144.481
  0
LINE
  8
0
 10
-6.37868
 20
-144.481
 11
-6.62967
 21
-144.406
  0
LINE
  8
0
 10
-6.62967
 20
-144.406
 11
-6.85831
 21
-144.3
  0
LINE
  8
0
 10
-6.85831
 20
-144.3
 11
-7.06456
 21
-144.164
  0
LINE
  8
0
 10
-7.06456
 20
-144.164
 11
-7.24846
 21
-143.998
  0
LINE
  8
0
 10
-7.24846
 20
-143.998
 11
-7.41
 21
-143.801
  0
LINE
  8
0
 10
-7.41
 20
-143.801
 11
-7.54962
 21
-143.573
  0
LINE
  8
0
 10
-7.54962
 20
-143.573
 11
-7.66776
 21
-143.312
  0
LINE
  8
0
 10
-7.66776
 20
-143.312
 11
-7.7644
 21
-143.018
  0
LINE
  8
0
 10
-7.7644
 20
-143.018
 11
-7.83958
 21
-142.692
  0
LINE
  8
0
 10
-7.83958
 20
-142.692
 11
-7.89328
 21
-142.332
  0
LINE
  8
0
 10
-7.89328
 20
-142.332
 11
-7.92551
 21
-141.94
  0
LINE
  8
0
 10
-7.92551
 20
-141.94
 11
-7.93623
 21
-141.515
  0
LINE
  8
0
 10
-7.93623
 20
-141.515
 11
-7.89284
 21
-140.7
  0
LINE
  8
0
 10
-7.89284
 20
-140.7
 11
-7.76263
 21
-140.011
  0
LINE
  8
0
 10
-7.76263
 20
-140.011
 11
-7.54564
 21
-139.447
  0
LINE
  8
0
 10
-7.54564
 20
-139.447
 11
-7.24182
 21
-139.008
  0
LINE
  8
0
 10
-7.24182
 20
-139.008
 11
-6.85123
 21
-138.695
  0
LINE
  8
0
 10
-6.85123
 20
-138.695
 11
-6.37381
 21
-138.507
  0
LINE
  8
0
 10
-6.37381
 20
-138.507
 11
-5.8096
 21
-138.444
  0
LINE
  8
0
 10
-5.8096
 20
-138.444
 11
-5.44612
 21
-138.464
  0
LINE
  8
0
 10
-5.44612
 20
-138.464
 11
-5.1183
 21
-138.526
  0
LINE
  8
0
 10
-5.1183
 20
-138.526
 11
-4.82613
 21
-138.627
  0
LINE
  8
0
 10
-4.82613
 20
-138.627
 11
-4.5696
 21
-138.77
  0
LINE
  8
0
 10
-4.5696
 20
-138.77
 11
-4.34872
 21
-138.953
  0
LINE
  8
0
 10
-4.34872
 20
-138.953
 11
-4.1635
 21
-139.177
  0
LINE
  8
0
 10
-4.1635
 20
-139.177
 11
-4.01392
 21
-139.442
  0
LINE
  8
0
 10
-4.01392
 20
-139.442
 11
-3.9868
 21
-139.442
  0
LINE
  8
0
 10
-3.9868
 20
-139.442
 11
-3.99255
 21
-139.413
  0
LINE
  8
0
 10
-3.99255
 20
-139.413
 11
-3.99742
 21
-139.351
  0
LINE
  8
0
 10
-3.99742
 20
-139.351
 11
-4.0014
 21
-139.256
  0
LINE
  8
0
 10
-4.0014
 20
-139.256
 11
-4.0045
 21
-139.127
  0
LINE
  8
0
 10
-4.0045
 20
-139.127
 11
-4.00671
 21
-138.965
  0
LINE
  8
0
 10
-4.00671
 20
-138.965
 11
-4.00804
 21
-138.77
  0
LINE
  8
0
 10
-4.00804
 20
-138.77
 11
-4.00848
 21
-138.542
  0
LINE
  8
0
 10
-4.00848
 20
-138.542
 11
-4.00848
 21
-136.247
  0
LINE
  8
0
 10
-4.00848
 20
-136.247
 11
-3.02657
 21
-136.247
  0
LINE
  8
0
 10
-3.02657
 20
-136.247
 11
-3.02657
 21
-143.207
  0
LINE
  8
0
 10
-3.02657
 20
-143.207
 11
-3.02589
 21
-143.458
  0
LINE
  8
0
 10
-3.02589
 20
-143.458
 11
-3.02391
 21
-143.683
  0
LINE
  8
0
 10
-3.02391
 20
-143.683
 11
-3.02058
 21
-143.882
  0
LINE
  8
0
 10
-3.02058
 20
-143.882
 11
-3.01593
 21
-144.056
  0
LINE
  8
0
 10
-3.01593
 20
-144.056
 11
-3.00995
 21
-144.204
  0
LINE
  8
0
 10
-3.00995
 20
-144.204
 11
-3.00264
 21
-144.326
  0
LINE
  8
0
 10
-3.00264
 20
-144.326
 11
-2.994
 21
-144.422
  0
LINE
  8
0
 10
-2.994
 20
-144.422
 11
-3.94344
 21
-144.422
  0
LINE
  8
0
 10
-3.94344
 20
-144.422
 11
-3.94508
 21
-144.414
  0
LINE
  8
0
 10
-3.94508
 20
-144.414
 11
-3.94696
 21
-144.4
  0
LINE
  8
0
 10
-3.94696
 20
-144.4
 11
-3.94905
 21
-144.382
  0
LINE
  8
0
 10
-3.94905
 20
-144.382
 11
-3.95137
 21
-144.359
  0
LINE
  8
0
 10
-3.95137
 20
-144.359
 11
-3.95392
 21
-144.332
  0
LINE
  8
0
 10
-3.95392
 20
-144.332
 11
-3.95668
 21
-144.299
  0
LINE
  8
0
 10
-3.95668
 20
-144.299
 11
-3.95969
 21
-144.262
  0
LINE
  8
0
 10
-3.95969
 20
-144.262
 11
-3.96284
 21
-144.22
  0
LINE
  8
0
 10
-3.96284
 20
-144.22
 11
-3.96611
 21
-144.173
  0
LINE
  8
0
 10
-3.96611
 20
-144.173
 11
-3.9695
 21
-144.12
  0
LINE
  8
0
 10
-3.9695
 20
-144.12
 11
-3.97298
 21
-144.062
  0
LINE
  8
0
 10
-3.97298
 20
-144.062
 11
-3.97658
 21
-143.998
  0
LINE
  8
0
 10
-3.97658
 20
-143.998
 11
-3.98027
 21
-143.929
  0
LINE
  8
0
 10
-3.98027
 20
-143.929
 11
-3.98409
 21
-143.855
  0
LINE
  8
0
 10
-3.98409
 20
-143.855
 11
-3.98769
 21
-143.781
  0
LINE
  8
0
 10
-3.98769
 20
-143.781
 11
-3.99074
 21
-143.713
  0
LINE
  8
0
 10
-3.99074
 20
-143.713
 11
-3.99324
 21
-143.651
  0
LINE
  8
0
 10
-3.99324
 20
-143.651
 11
-3.99518
 21
-143.594
  0
LINE
  8
0
 10
-3.99518
 20
-143.594
 11
-3.99657
 21
-143.542
  0
LINE
  8
0
 10
-3.99657
 20
-143.542
 11
-3.99741
 21
-143.497
  0
LINE
  8
0
 10
-3.99741
 20
-143.497
 11
-3.99768
 21
-143.457
  0
LINE
  8
0
 10
-3.99768
 20
-143.457
 11
-4.01936
 21
-143.457
  0
LINE
  8
0
 10
-4.01936
 20
-143.457
 11
-4.09991
 21
-143.613
  0
LINE
  8
0
 10
-4.09991
 20
-143.613
 11
-4.18655
 21
-143.757
  0
LINE
  8
0
 10
-4.18655
 20
-143.757
 11
-4.27928
 21
-143.888
  0
LINE
  8
0
 10
-4.27928
 20
-143.888
 11
-4.37808
 21
-144.006
  0
LINE
  8
0
 10
-4.37808
 20
-144.006
 11
-4.48299
 21
-144.111
  0
LINE
  8
0
 10
-4.48299
 20
-144.111
 11
-4.59396
 21
-144.204
  0
LINE
  8
0
 10
-4.59396
 20
-144.204
 11
-4.71104
 21
-144.284
  0
LINE
  8
0
 10
-4.71104
 20
-144.284
 11
-4.83644
 21
-144.352
  0
LINE
  8
0
 10
-4.83644
 20
-144.352
 11
-4.97235
 21
-144.41
  0
LINE
  8
0
 10
-4.97235
 20
-144.41
 11
-5.11877
 21
-144.458
  0
LINE
  8
0
 10
-5.11877
 20
-144.458
 11
-5.27571
 21
-144.494
  0
LINE
  8
0
 10
-5.27571
 20
-144.494
 11
-5.44316
 21
-144.521
  0
LINE
  8
0
 10
-5.44316
 20
-144.521
 11
-5.62112
 21
-144.536
  0
LINE
  8
0
 10
-5.62112
 20
-144.536
 11
-5.8096
 21
-144.542
  0
LINE
  8
0
 10
-5.8096
 20
-144.542
 11
-6.10532
 21
-144.527
  0
LINE
  8
0
 10
-5.32988
 20
-143.775
 11
-5.12372
 21
-143.739
  0
LINE
  8
0
 10
-5.12372
 20
-143.739
 11
-4.93617
 21
-143.678
  0
LINE
  8
0
 10
-4.93617
 20
-143.678
 11
-4.76721
 21
-143.594
  0
LINE
  8
0
 10
-4.76721
 20
-143.594
 11
-4.61685
 21
-143.485
  0
LINE
  8
0
 10
-4.61685
 20
-143.485
 11
-4.48508
 21
-143.351
  0
LINE
  8
0
 10
-4.48508
 20
-143.351
 11
-4.37192
 21
-143.194
  0
LINE
  8
0
 10
-4.37192
 20
-143.194
 11
-4.2755
 21
-143.011
  0
LINE
  8
0
 10
-4.2755
 20
-143.011
 11
-4.19391
 21
-142.804
  0
LINE
  8
0
 10
-4.19391
 20
-142.804
 11
-4.12715
 21
-142.572
  0
LINE
  8
0
 10
-4.12715
 20
-142.572
 11
-4.07524
 21
-142.315
  0
LINE
  8
0
 10
-4.07524
 20
-142.315
 11
-4.03815
 21
-142.034
  0
LINE
  8
0
 10
-4.03815
 20
-142.034
 11
-4.0159
 21
-141.727
  0
LINE
  8
0
 10
-4.0159
 20
-141.727
 11
-4.00848
 21
-141.395
  0
LINE
  8
0
 10
-4.00848
 20
-141.395
 11
-4.0159
 21
-141.078
  0
LINE
  8
0
 10
-4.0159
 20
-141.078
 11
-4.03815
 21
-140.785
  0
LINE
  8
0
 10
-4.03815
 20
-140.785
 11
-4.07524
 21
-140.518
  0
LINE
  8
0
 10
-4.07524
 20
-140.518
 11
-4.12715
 21
-140.277
  0
LINE
  8
0
 10
-4.12715
 20
-140.277
 11
-4.19391
 21
-140.06
  0
LINE
  8
0
 10
-4.19391
 20
-140.06
 11
-4.2755
 21
-139.869
  0
LINE
  8
0
 10
-4.2755
 20
-139.869
 11
-4.37192
 21
-139.703
  0
LINE
  8
0
 10
-4.37192
 20
-139.703
 11
-4.48486
 21
-139.56
  0
LINE
  8
0
 10
-4.48486
 20
-139.56
 11
-4.61595
 21
-139.44
  0
LINE
  8
0
 10
-4.61595
 20
-139.44
 11
-4.76521
 21
-139.341
  0
LINE
  8
0
 10
-4.76521
 20
-139.341
 11
-4.93262
 21
-139.264
  0
LINE
  8
0
 10
-4.93262
 20
-139.264
 11
-5.11818
 21
-139.209
  0
LINE
  8
0
 10
-5.11818
 20
-139.209
 11
-5.32188
 21
-139.177
  0
LINE
  8
0
 10
-5.32188
 20
-139.177
 11
-5.54376
 21
-139.166
  0
LINE
  8
0
 10
-5.54376
 20
-139.166
 11
-5.74194
 21
-139.177
  0
LINE
  8
0
 10
-5.74194
 20
-139.177
 11
-5.92418
 21
-139.21
  0
LINE
  8
0
 10
-5.92418
 20
-139.21
 11
-6.09047
 21
-139.266
  0
LINE
  8
0
 10
-6.09047
 20
-139.266
 11
-6.24083
 21
-139.344
  0
LINE
  8
0
 10
-6.24083
 20
-139.344
 11
-6.37524
 21
-139.445
  0
LINE
  8
0
 10
-6.37524
 20
-139.445
 11
-6.49371
 21
-139.568
  0
LINE
  8
0
 10
-6.49371
 20
-139.568
 11
-6.59624
 21
-139.713
  0
LINE
  8
0
 10
-6.59624
 20
-139.713
 11
-6.68405
 21
-139.884
  0
LINE
  8
0
 10
-6.68405
 20
-139.884
 11
-6.75835
 21
-140.084
  0
LINE
  8
0
 10
-6.75835
 20
-140.084
 11
-6.81914
 21
-140.313
  0
LINE
  8
0
 10
-6.81914
 20
-140.313
 11
-6.86641
 21
-140.57
  0
LINE
  8
0
 10
-6.86641
 20
-140.57
 11
-6.90018
 21
-140.856
  0
LINE
  8
0
 10
-6.90018
 20
-140.856
 11
-6.92044
 21
-141.171
  0
LINE
  8
0
 10
-6.92044
 20
-141.171
 11
-6.9272
 21
-141.515
  0
LINE
  8
0
 10
-6.9272
 20
-141.515
 11
-6.92044
 21
-141.851
  0
LINE
  8
0
 10
-6.92044
 20
-141.851
 11
-6.90018
 21
-142.158
  0
LINE
  8
0
 10
-6.90018
 20
-142.158
 11
-6.86641
 21
-142.436
  0
LINE
  8
0
 10
-6.86641
 20
-142.436
 11
-6.81914
 21
-142.686
  0
LINE
  8
0
 10
-6.81914
 20
-142.686
 11
-6.75835
 21
-142.908
  0
LINE
  8
0
 10
-6.75835
 20
-142.908
 11
-6.68405
 21
-143.1
  0
LINE
  8
0
 10
-6.68405
 20
-143.1
 11
-6.59624
 21
-143.264
  0
LINE
  8
0
 10
-6.59624
 20
-143.264
 11
-6.49393
 21
-143.403
  0
LINE
  8
0
 10
-6.49393
 20
-143.403
 11
-6.37613
 21
-143.521
  0
LINE
  8
0
 10
-6.37613
 20
-143.521
 11
-6.24283
 21
-143.617
  0
LINE
  8
0
 10
-6.24283
 20
-143.617
 11
-6.09402
 21
-143.691
  0
LINE
  8
0
 10
-6.09402
 20
-143.691
 11
-5.92973
 21
-143.745
  0
LINE
  8
0
 10
-5.92973
 20
-143.745
 11
-5.74994
 21
-143.777
  0
LINE
  8
0
 10
-5.74994
 20
-143.777
 11
-5.55464
 21
-143.788
  0
LINE
  8
0
 10
-5.55464
 20
-143.788
 11
-5.32988
 21
-143.775
  0
LINE
  8
0
 10
0.787766
 20
-144.515
 11
0.451096
 21
-144.469
  0
LINE
  8
0
 10
0.451096
 20
-144.469
 11
0.142105
 21
-144.392
  0
LINE
  8
0
 10
0.142105
 20
-144.392
 11
-0.139221
 21
-144.285
  0
LINE
  8
0
 10
-0.139221
 20
-144.285
 11
-0.392853
 21
-144.146
  0
LINE
  8
0
 10
-0.392853
 20
-144.146
 11
-0.618805
 21
-143.977
  0
LINE
  8
0
 10
-0.618805
 20
-143.977
 11
-0.817078
 21
-143.777
  0
LINE
  8
0
 10
-0.817078
 20
-143.777
 11
-0.988358
 21
-143.545
  0
LINE
  8
0
 10
-0.988358
 20
-143.545
 11
-1.13329
 21
-143.283
  0
LINE
  8
0
 10
-1.13329
 20
-143.283
 11
-1.25186
 21
-142.988
  0
LINE
  8
0
 10
-1.25186
 20
-142.988
 11
-1.3441
 21
-142.662
  0
LINE
  8
0
 10
-1.3441
 20
-142.662
 11
-1.40997
 21
-142.304
  0
LINE
  8
0
 10
-1.40997
 20
-142.304
 11
-1.44951
 21
-141.914
  0
LINE
  8
0
 10
-1.44951
 20
-141.914
 11
-1.46268
 21
-141.493
  0
LINE
  8
0
 10
-1.46268
 20
-141.493
 11
-1.44878
 21
-141.084
  0
LINE
  8
0
 10
-1.44878
 20
-141.084
 11
-1.40709
 21
-140.703
  0
LINE
  8
0
 10
-1.40709
 20
-140.703
 11
-1.33762
 21
-140.351
  0
LINE
  8
0
 10
-1.33762
 20
-140.351
 11
-1.24034
 21
-140.028
  0
LINE
  8
0
 10
-1.24034
 20
-140.028
 11
-1.1153
 21
-139.733
  0
LINE
  8
0
 10
-1.1153
 20
-139.733
 11
-0.962433
 21
-139.466
  0
LINE
  8
0
 10
-0.962433
 20
-139.466
 11
-0.781799
 21
-139.228
  0
LINE
  8
0
 10
-0.781799
 20
-139.228
 11
-0.574936
 21
-139.02
  0
LINE
  8
0
 10
-0.574936
 20
-139.02
 11
-0.343384
 21
-138.844
  0
LINE
  8
0
 10
-0.343384
 20
-138.844
 11
-0.0871582
 21
-138.7
  0
LINE
  8
0
 10
-0.0871582
 20
-138.7
 11
0.193771
 21
-138.588
  0
LINE
  8
0
 10
0.193771
 20
-138.588
 11
0.49939
 21
-138.508
  0
LINE
  8
0
 10
0.49939
 20
-138.508
 11
0.829697
 21
-138.46
  0
LINE
  8
0
 10
0.829697
 20
-138.46
 11
1.18468
 21
-138.444
  0
LINE
  8
0
 10
1.18468
 20
-138.444
 11
1.53229
 21
-138.46
  0
LINE
  8
0
 10
1.53229
 20
-138.46
 11
1.85585
 21
-138.509
  0
LINE
  8
0
 10
1.85585
 20
-138.509
 11
2.1554
 21
-138.589
  0
LINE
  8
0
 10
2.1554
 20
-138.589
 11
2.43092
 21
-138.703
  0
LINE
  8
0
 10
2.43092
 20
-138.703
 11
2.68242
 21
-138.848
  0
LINE
  8
0
 10
2.68242
 20
-138.848
 11
2.90988
 21
-139.026
  0
LINE
  8
0
 10
2.90988
 20
-139.026
 11
3.11333
 21
-139.236
  0
LINE
  8
0
 10
3.11333
 20
-139.236
 11
3.29106
 21
-139.476
  0
LINE
  8
0
 10
3.29106
 20
-139.476
 11
3.44145
 21
-139.744
  0
LINE
  8
0
 10
3.44145
 20
-139.744
 11
3.5645
 21
-140.038
  0
LINE
  8
0
 10
3.5645
 20
-140.038
 11
3.6602
 21
-140.361
  0
LINE
  8
0
 10
3.6602
 20
-140.361
 11
3.72856
 21
-140.711
  0
LINE
  8
0
 10
3.72856
 20
-140.711
 11
3.76958
 21
-141.088
  0
LINE
  8
0
 10
3.76958
 20
-141.088
 11
3.78325
 21
-141.493
  0
LINE
  8
0
 10
3.78325
 20
-141.493
 11
3.76924
 21
-141.91
  0
LINE
  8
0
 10
3.76924
 20
-141.91
 11
3.72722
 21
-142.296
  0
LINE
  8
0
 10
3.72722
 20
-142.296
 11
3.6572
 21
-142.652
  0
LINE
  8
0
 10
3.6572
 20
-142.652
 11
3.55916
 21
-142.977
  0
LINE
  8
0
 10
3.55916
 20
-142.977
 11
3.43312
 21
-143.272
  0
LINE
  8
0
 10
3.43312
 20
-143.272
 11
3.27907
 21
-143.535
  0
LINE
  8
0
 10
3.27907
 20
-143.535
 11
3.097
 21
-143.769
  0
LINE
  8
0
 10
3.097
 20
-143.769
 11
2.88925
 21
-143.971
  0
LINE
  8
0
 10
2.88925
 20
-143.971
 11
2.65814
 21
-144.142
  0
LINE
  8
0
 10
2.65814
 20
-144.142
 11
2.40366
 21
-144.282
  0
LINE
  8
0
 10
2.40366
 20
-144.282
 11
2.12582
 21
-144.391
  0
LINE
  8
0
 10
2.12582
 20
-144.391
 11
1.82462
 21
-144.469
  0
LINE
  8
0
 10
1.82462
 20
-144.469
 11
1.50005
 21
-144.515
  0
LINE
  8
0
 10
1.50005
 20
-144.515
 11
1.15213
 21
-144.531
  0
LINE
  8
0
 10
1.15213
 20
-144.531
 11
0.787766
 21
-144.515
  0
LINE
  8
0
 10
1.36694
 20
-143.797
 11
1.57964
 21
-143.761
  0
LINE
  8
0
 10
1.57964
 20
-143.761
 11
1.77394
 21
-143.702
  0
LINE
  8
0
 10
1.77394
 20
-143.702
 11
1.94987
 21
-143.618
  0
LINE
  8
0
 10
1.94987
 20
-143.618
 11
2.10742
 21
-143.51
  0
LINE
  8
0
 10
2.10742
 20
-143.51
 11
2.2466
 21
-143.379
  0
LINE
  8
0
 10
2.2466
 20
-143.379
 11
2.3674
 21
-143.223
  0
LINE
  8
0
 10
2.3674
 20
-143.223
 11
2.47102
 21
-143.045
  0
LINE
  8
0
 10
2.47102
 20
-143.045
 11
2.5587
 21
-142.843
  0
LINE
  8
0
 10
2.5587
 20
-142.843
 11
2.63043
 21
-142.619
  0
LINE
  8
0
 10
2.63043
 20
-142.619
 11
2.68623
 21
-142.371
  0
LINE
  8
0
 10
2.68623
 20
-142.371
 11
2.72607
 21
-142.101
  0
LINE
  8
0
 10
2.72607
 20
-142.101
 11
2.75
 21
-141.808
  0
LINE
  8
0
 10
2.75
 20
-141.808
 11
2.75797
 21
-141.493
  0
LINE
  8
0
 10
2.75797
 20
-141.493
 11
2.75
 21
-141.178
  0
LINE
  8
0
 10
2.75
 20
-141.178
 11
2.72607
 21
-140.886
  0
LINE
  8
0
 10
2.72607
 20
-140.886
 11
2.68623
 21
-140.617
  0
LINE
  8
0
 10
2.68623
 20
-140.617
 11
2.63043
 21
-140.369
  0
LINE
  8
0
 10
2.63043
 20
-140.369
 11
2.5587
 21
-140.144
  0
LINE
  8
0
 10
2.5587
 20
-140.144
 11
2.47102
 21
-139.94
  0
LINE
  8
0
 10
2.47102
 20
-139.94
 11
2.3674
 21
-139.76
  0
LINE
  8
0
 10
2.3674
 20
-139.76
 11
2.24782
 21
-139.602
  0
LINE
  8
0
 10
2.24782
 20
-139.602
 11
2.1123
 21
-139.469
  0
LINE
  8
0
 10
2.1123
 20
-139.469
 11
1.96083
 21
-139.36
  0
LINE
  8
0
 10
1.96083
 20
-139.36
 11
1.79343
 21
-139.275
  0
LINE
  8
0
 10
1.79343
 20
-139.275
 11
1.61008
 21
-139.214
  0
LINE
  8
0
 10
1.61008
 20
-139.214
 11
1.4108
 21
-139.178
  0
LINE
  8
0
 10
1.4108
 20
-139.178
 11
1.19556
 21
-139.166
  0
LINE
  8
0
 10
1.19556
 20
-139.166
 11
0.958862
 21
-139.177
  0
LINE
  8
0
 10
0.958862
 20
-139.177
 11
0.741638
 21
-139.213
  0
LINE
  8
0
 10
0.741638
 20
-139.213
 11
0.5439
 21
-139.272
  0
LINE
  8
0
 10
0.5439
 20
-139.272
 11
0.365646
 21
-139.355
  0
LINE
  8
0
 10
0.365646
 20
-139.355
 11
0.206879
 21
-139.462
  0
LINE
  8
0
 10
0.206879
 20
-139.462
 11
0.0675964
 21
-139.592
  0
LINE
  8
0
 10
0.0675964
 20
-139.592
 11
-0.0522003
 21
-139.746
  0
LINE
  8
0
 10
-0.0522003
 20
-139.746
 11
-0.154388
 21
-139.924
  0
LINE
  8
0
 10
-0.154388
 20
-139.924
 11
-0.24086
 21
-140.126
  0
LINE
  8
0
 10
-0.24086
 20
-140.126
 11
-0.311615
 21
-140.351
  0
LINE
  8
0
 10
-0.311615
 20
-140.351
 11
-0.366638
 21
-140.601
  0
LINE
  8
0
 10
-0.366638
 20
-140.601
 11
-0.405945
 21
-140.874
  0
LINE
  8
0
 10
-0.405945
 20
-140.874
 11
-0.429535
 21
-141.172
  0
LINE
  8
0
 10
-0.429535
 20
-141.172
 11
-0.437393
 21
-141.493
  0
LINE
  8
0
 10
-0.437393
 20
-141.493
 11
-0.42981
 21
-141.814
  0
LINE
  8
0
 10
-0.42981
 20
-141.814
 11
-0.407059
 21
-142.111
  0
LINE
  8
0
 10
-0.407059
 20
-142.111
 11
-0.369125
 21
-142.384
  0
LINE
  8
0
 10
-0.369125
 20
-142.384
 11
-0.316025
 21
-142.633
  0
LINE
  8
0
 10
-0.316025
 20
-142.633
 11
-0.247757
 21
-142.857
  0
LINE
  8
0
 10
-0.247757
 20
-142.857
 11
-0.164322
 21
-143.058
  0
LINE
  8
0
 10
-0.164322
 20
-143.058
 11
-0.0657196
 21
-143.234
  0
LINE
  8
0
 10
-0.0657196
 20
-143.234
 11
0.0498047
 21
-143.387
  0
LINE
  8
0
 10
0.0498047
 20
-143.387
 11
0.184052
 21
-143.516
  0
LINE
  8
0
 10
0.184052
 20
-143.516
 11
0.33699
 21
-143.622
  0
LINE
  8
0
 10
0.33699
 20
-143.622
 11
0.508652
 21
-143.704
  0
LINE
  8
0
 10
0.508652
 20
-143.704
 11
0.69902
 21
-143.762
  0
LINE
  8
0
 10
0.69902
 20
-143.762
 11
0.908096
 21
-143.798
  0
LINE
  8
0
 10
0.908096
 20
-143.798
 11
1.13588
 21
-143.809
  0
LINE
  8
0
 10
1.13588
 20
-143.809
 11
1.36694
 21
-143.797
  0
LINE
  8
0
 10
4.75041
 20
-145.871
 11
4.75041
 21
-145.024
  0
LINE
  8
0
 10
4.75041
 20
-145.024
 11
7.15369
 21
-145.024
  0
LINE
  8
0
 10
7.15369
 20
-145.024
 11
7.15369
 21
-138.553
  0
LINE
  8
0
 10
7.15369
 20
-138.553
 11
8.1844
 21
-138.553
  0
LINE
  8
0
 10
8.1844
 20
-138.553
 11
8.1844
 21
-145.024
  0
LINE
  8
0
 10
8.1844
 20
-145.024
 11
10.5877
 21
-145.024
  0
LINE
  8
0
 10
10.5877
 20
-145.024
 11
10.5877
 21
-145.871
  0
LINE
  8
0
 10
10.5877
 20
-145.871
 11
4.75041
 21
-145.871
  0
ENDSEC
  0
SECTION
  2
OBJECTS
  0
DICTIONARY
  0
ENDSEC
  0
EOF
