  0
SECTION
  2
BLOCKS
  0
ENDSEC
  0
SECTION
  2
ENTITIES
  0
LINE
  8
0
 10
-215
 20
118.515
 11
-215
 21
106.365
  0
LINE
  8
0
 10
-215
 20
106.365
 11
-208.995
 21
106.365
  0
LINE
  8
0
 10
-208.995
 20
106.365
 11
-208.995
 21
94.195
  0
LINE
  8
0
 10
-208.995
 20
94.195
 11
-215
 21
94.195
  0
LINE
  8
0
 10
-215
 20
94.195
 11
-215
 21
82.045
  0
LINE
  8
0
 10
-215
 20
82.045
 11
-208.995
 21
82.045
  0
LINE
  8
0
 10
-208.995
 20
82.045
 11
-208.995
 21
69.875
  0
LINE
  8
0
 10
-208.995
 20
69.875
 11
-215
 21
69.875
  0
LINE
  8
0
 10
-215
 20
69.875
 11
-215
 21
57.725
  0
LINE
  8
0
 10
-215
 20
57.725
 11
-208.995
 21
57.725
  0
LINE
  8
0
 10
-208.995
 20
57.725
 11
-208.995
 21
45.555
  0
LINE
  8
0
 10
-208.995
 20
45.555
 11
-215
 21
45.555
  0
LINE
  8
0
 10
-215
 20
45.555
 11
-215
 21
33.405
  0
LINE
  8
0
 10
-215
 20
33.405
 11
-208.995
 21
33.405
  0
LINE
  8
0
 10
-208.995
 20
33.405
 11
-208.995
 21
21.235
  0
LINE
  8
0
 10
-208.995
 20
21.235
 11
-215
 21
21.235
  0
LINE
  8
0
 10
-215
 20
21.235
 11
-215
 21
9.08499
  0
LINE
  8
0
 10
-215
 20
9.08499
 11
-208.995
 21
9.08499
  0
LINE
  8
0
 10
-208.995
 20
9.08499
 11
-208.995
 21
-3.08499
  0
LINE
  8
0
 10
-208.995
 20
-3.08499
 11
-215
 21
-3.08499
  0
LINE
  8
0
 10
-215
 20
-3.08499
 11
-215
 21
-15.235
  0
LINE
  8
0
 10
-215
 20
-15.235
 11
-208.995
 21
-15.235
  0
LINE
  8
0
 10
-208.995
 20
-15.235
 11
-208.995
 21
-27.405
  0
LINE
  8
0
 10
-208.995
 20
-27.405
 11
-215
 21
-27.405
  0
LINE
  8
0
 10
-215
 20
-27.405
 11
-215
 21
-39.555
  0
LINE
  8
0
 10
-215
 20
-39.555
 11
-208.995
 21
-39.555
  0
LINE
  8
0
 10
-208.995
 20
-39.555
 11
-208.995
 21
-51.725
  0
LINE
  8
0
 10
-208.995
 20
-51.725
 11
-215
 21
-51.725
  0
LINE
  8
0
 10
-215
 20
-51.725
 11
-215
 21
-63.875
  0
LINE
  8
0
 10
-215
 20
-63.875
 11
-208.995
 21
-63.875
  0
LINE
  8
0
 10
-208.995
 20
-63.875
 11
-208.995
 21
-76.045
  0
LINE
  8
0
 10
-208.995
 20
-76.045
 11
-215
 21
-76.045
  0
LINE
  8
0
 10
-215
 20
-76.045
 11
-215
 21
-88.195
  0
LINE
  8
0
 10
-215
 20
-88.195
 11
-208.995
 21
-88.195
  0
LINE
  8
0
 10
-208.995
 20
-88.195
 11
-208.995
 21
-100.365
  0
LINE
  8
0
 10
-208.995
 20
-100.365
 11
-215
 21
-100.365
  0
LINE
  8
0
 10
-215
 20
-100.365
 11
-215
 21
-112.515
  0
LINE
  8
0
 10
-215
 20
-112.515
 11
-208.995
 21
-112.515
  0
LINE
  8
0
 10
-208.995
 20
-112.515
 11
-208.995
 21
-124.685
  0
LINE
  8
0
 10
-208.995
 20
-124.685
 11
-215
 21
-124.685
  0
LINE
  8
0
 10
-215
 20
-124.685
 11
-215
 21
-136.835
  0
LINE
  8
0
 10
-215
 20
-136.835
 11
-208.995
 21
-136.835
  0
LINE
  8
0
 10
-208.995
 20
-136.835
 11
-208.995
 21
-148.995
  0
LINE
  8
0
 10
-208.995
 20
-148.995
 11
-202.709
 21
-148.995
  0
LINE
  8
0
 10
-202.709
 20
-148.995
 11
-202.709
 21
-155
  0
LINE
  8
0
 10
-202.709
 20
-155
 11
-190.434
 21
-155
  0
LINE
  8
0
 10
-190.434
 20
-155
 11
-190.434
 21
-148.995
  0
LINE
  8
0
 10
-190.434
 20
-148.995
 11
-178.138
 21
-148.995
  0
LINE
  8
0
 10
-178.138
 20
-148.995
 11
-178.138
 21
-155
  0
LINE
  8
0
 10
-178.138
 20
-155
 11
-165.862
 21
-155
  0
LINE
  8
0
 10
-165.862
 20
-155
 11
-165.862
 21
-148.995
  0
LINE
  8
0
 10
-165.862
 20
-148.995
 11
-153.566
 21
-148.995
  0
LINE
  8
0
 10
-153.566
 20
-148.995
 11
-153.566
 21
-155
  0
LINE
  8
0
 10
-153.566
 20
-155
 11
-141.291
 21
-155
  0
LINE
  8
0
 10
-141.291
 20
-155
 11
-141.291
 21
-148.995
  0
LINE
  8
0
 10
-141.291
 20
-148.995
 11
-128.995
 21
-148.995
  0
LINE
  8
0
 10
-128.995
 20
-148.995
 11
-128.995
 21
-155
  0
LINE
  8
0
 10
-128.995
 20
-155
 11
-116.719
 21
-155
  0
LINE
  8
0
 10
-116.719
 20
-155
 11
-116.719
 21
-148.995
  0
LINE
  8
0
 10
-116.719
 20
-148.995
 11
-104.424
 21
-148.995
  0
LINE
  8
0
 10
-104.424
 20
-148.995
 11
-104.424
 21
-155
  0
LINE
  8
0
 10
-104.424
 20
-155
 11
-92.1479
 21
-155
  0
LINE
  8
0
 10
-92.1479
 20
-155
 11
-92.1479
 21
-148.995
  0
LINE
  8
0
 10
-92.1479
 20
-148.995
 11
-79.8521
 21
-148.995
  0
LINE
  8
0
 10
-79.8521
 20
-148.995
 11
-79.8521
 21
-155
  0
LINE
  8
0
 10
-79.8521
 20
-155
 11
-67.5764
 21
-155
  0
LINE
  8
0
 10
-67.5764
 20
-155
 11
-67.5764
 21
-148.995
  0
LINE
  8
0
 10
-67.5764
 20
-148.995
 11
-55.2807
 21
-148.995
  0
LINE
  8
0
 10
-55.2807
 20
-148.995
 11
-55.2807
 21
-155
  0
LINE
  8
0
 10
-55.2807
 20
-155
 11
-43.005
 21
-155
  0
LINE
  8
0
 10
-43.005
 20
-155
 11
-43.005
 21
-148.995
  0
LINE
  8
0
 10
-43.005
 20
-148.995
 11
-30.7093
 21
-148.995
  0
LINE
  8
0
 10
-30.7093
 20
-148.995
 11
-30.7093
 21
-155
  0
LINE
  8
0
 10
-30.7093
 20
-155
 11
-18.4336
 21
-155
  0
LINE
  8
0
 10
-18.4336
 20
-155
 11
-18.4336
 21
-148.995
  0
LINE
  8
0
 10
-18.4336
 20
-148.995
 11
-6.13785
 21
-148.995
  0
LINE
  8
0
 10
-6.13785
 20
-148.995
 11
-6.13785
 21
-155
  0
LINE
  8
0
 10
-6.13785
 20
-155
 11
6.13785
 21
-155
  0
LINE
  8
0
 10
6.13785
 20
-155
 11
6.13785
 21
-148.995
  0
LINE
  8
0
 10
6.13785
 20
-148.995
 11
18.4336
 21
-148.995
  0
LINE
  8
0
 10
18.4336
 20
-148.995
 11
18.4336
 21
-155
  0
LINE
  8
0
 10
18.4336
 20
-155
 11
30.7093
 21
-155
  0
LINE
  8
0
 10
30.7093
 20
-155
 11
30.7093
 21
-148.995
  0
LINE
  8
0
 10
30.7093
 20
-148.995
 11
43.005
 21
-148.995
  0
LINE
  8
0
 10
43.005
 20
-148.995
 11
43.005
 21
-155
  0
LINE
  8
0
 10
43.005
 20
-155
 11
55.2807
 21
-155
  0
LINE
  8
0
 10
55.2807
 20
-155
 11
55.2807
 21
-148.995
  0
LINE
  8
0
 10
55.2807
 20
-148.995
 11
67.5764
 21
-148.995
  0
LINE
  8
0
 10
67.5764
 20
-148.995
 11
67.5764
 21
-155
  0
LINE
  8
0
 10
67.5764
 20
-155
 11
79.8521
 21
-155
  0
LINE
  8
0
 10
79.8521
 20
-155
 11
79.8521
 21
-148.995
  0
LINE
  8
0
 10
79.8521
 20
-148.995
 11
92.1479
 21
-148.995
  0
LINE
  8
0
 10
92.1479
 20
-148.995
 11
92.1479
 21
-155
  0
LINE
  8
0
 10
92.1479
 20
-155
 11
104.424
 21
-155
  0
LINE
  8
0
 10
104.424
 20
-155
 11
104.424
 21
-148.995
  0
LINE
  8
0
 10
104.424
 20
-148.995
 11
116.719
 21
-148.995
  0
LINE
  8
0
 10
116.719
 20
-148.995
 11
116.719
 21
-155
  0
LINE
  8
0
 10
116.719
 20
-155
 11
128.995
 21
-155
  0
LINE
  8
0
 10
128.995
 20
-155
 11
128.995
 21
-148.995
  0
LINE
  8
0
 10
128.995
 20
-148.995
 11
141.291
 21
-148.995
  0
LINE
  8
0
 10
141.291
 20
-148.995
 11
141.291
 21
-155
  0
LINE
  8
0
 10
141.291
 20
-155
 11
153.566
 21
-155
  0
LINE
  8
0
 10
153.566
 20
-155
 11
153.566
 21
-148.995
  0
LINE
  8
0
 10
153.566
 20
-148.995
 11
165.862
 21
-148.995
  0
LINE
  8
0
 10
165.862
 20
-148.995
 11
165.862
 21
-155
  0
LINE
  8
0
 10
165.862
 20
-155
 11
178.138
 21
-155
  0
LINE
  8
0
 10
178.138
 20
-155
 11
178.138
 21
-148.995
  0
LINE
  8
0
 10
178.138
 20
-148.995
 11
190.434
 21
-148.995
  0
LINE
  8
0
 10
190.434
 20
-148.995
 11
190.434
 21
-155
  0
LINE
  8
0
 10
190.434
 20
-155
 11
202.709
 21
-155
  0
LINE
  8
0
 10
202.709
 20
-155
 11
202.709
 21
-148.995
  0
LINE
  8
0
 10
202.709
 20
-148.995
 11
208.995
 21
-148.995
  0
LINE
  8
0
 10
208.995
 20
-148.995
 11
208.995
 21
-136.835
  0
LINE
  8
0
 10
208.995
 20
-136.835
 11
215
 21
-136.835
  0
LINE
  8
0
 10
215
 20
-136.835
 11
215
 21
-124.685
  0
LINE
  8
0
 10
215
 20
-124.685
 11
208.995
 21
-124.685
  0
LINE
  8
0
 10
208.995
 20
-124.685
 11
208.995
 21
-112.515
  0
LINE
  8
0
 10
208.995
 20
-112.515
 11
215
 21
-112.515
  0
LINE
  8
0
 10
215
 20
-112.515
 11
215
 21
-100.365
  0
LINE
  8
0
 10
215
 20
-100.365
 11
208.995
 21
-100.365
  0
LINE
  8
0
 10
208.995
 20
-100.365
 11
208.995
 21
-88.195
  0
LINE
  8
0
 10
208.995
 20
-88.195
 11
215
 21
-88.195
  0
LINE
  8
0
 10
215
 20
-88.195
 11
215
 21
-76.045
  0
LINE
  8
0
 10
215
 20
-76.045
 11
208.995
 21
-76.045
  0
LINE
  8
0
 10
208.995
 20
-76.045
 11
208.995
 21
-63.875
  0
LINE
  8
0
 10
208.995
 20
-63.875
 11
215
 21
-63.875
  0
LINE
  8
0
 10
215
 20
-63.875
 11
215
 21
-51.725
  0
LINE
  8
0
 10
215
 20
-51.725
 11
208.995
 21
-51.725
  0
LINE
  8
0
 10
208.995
 20
-51.725
 11
208.995
 21
-39.555
  0
LINE
  8
0
 10
208.995
 20
-39.555
 11
215
 21
-39.555
  0
LINE
  8
0
 10
215
 20
-39.555
 11
215
 21
-27.405
  0
LINE
  8
0
 10
215
 20
-27.405
 11
208.995
 21
-27.405
  0
LINE
  8
0
 10
208.995
 20
-27.405
 11
208.995
 21
-15.235
  0
LINE
  8
0
 10
208.995
 20
-15.235
 11
215
 21
-15.235
  0
LINE
  8
0
 10
215
 20
-15.235
 11
215
 21
-3.08499
  0
LINE
  8
0
 10
215
 20
-3.08499
 11
208.995
 21
-3.08499
  0
LINE
  8
0
 10
208.995
 20
-3.08499
 11
208.995
 21
9.08499
  0
LINE
  8
0
 10
208.995
 20
9.08499
 11
215
 21
9.08499
  0
LINE
  8
0
 10
215
 20
9.08499
 11
215
 21
21.235
  0
LINE
  8
0
 10
215
 20
21.235
 11
208.995
 21
21.235
  0
LINE
  8
0
 10
208.995
 20
21.235
 11
208.995
 21
33.405
  0
LINE
  8
0
 10
208.995
 20
33.405
 11
215
 21
33.405
  0
LINE
  8
0
 10
215
 20
33.405
 11
215
 21
45.555
  0
LINE
  8
0
 10
215
 20
45.555
 11
208.995
 21
45.555
  0
LINE
  8
0
 10
208.995
 20
45.555
 11
208.995
 21
57.725
  0
LINE
  8
0
 10
208.995
 20
57.725
 11
215
 21
57.725
  0
LINE
  8
0
 10
215
 20
57.725
 11
215
 21
69.875
  0
LINE
  8
0
 10
215
 20
69.875
 11
208.995
 21
69.875
  0
LINE
  8
0
 10
208.995
 20
69.875
 11
208.995
 21
82.045
  0
LINE
  8
0
 10
208.995
 20
82.045
 11
215
 21
82.045
  0
LINE
  8
0
 10
215
 20
82.045
 11
215
 21
94.195
  0
LINE
  8
0
 10
215
 20
94.195
 11
208.995
 21
94.195
  0
LINE
  8
0
 10
208.995
 20
94.195
 11
208.995
 21
106.365
  0
LINE
  8
0
 10
208.995
 20
106.365
 11
215
 21
106.365
  0
LINE
  8
0
 10
215
 20
106.365
 11
215
 21
118.515
  0
LINE
  8
0
 10
215
 20
118.515
 11
208.995
 21
118.515
  0
LINE
  8
0
 10
208.995
 20
118.515
 11
208.995
 21
130.685
  0
LINE
  8
0
 10
208.995
 20
130.685
 11
215
 21
130.685
  0
LINE
  8
0
 10
215
 20
130.685
 11
215
 21
142.835
  0
LINE
  8
0
 10
215
 20
142.835
 11
208.995
 21
142.835
  0
LINE
  8
0
 10
208.995
 20
142.835
 11
208.995
 21
155
  0
LINE
  8
0
 10
208.995
 20
155
 11
-208.995
 21
155
  0
LINE
  8
0
 10
-208.995
 20
155
 11
-208.995
 21
142.835
  0
LINE
  8
0
 10
-208.995
 20
142.835
 11
-215
 21
142.835
  0
LINE
  8
0
 10
-215
 20
142.835
 11
-215
 21
130.685
  0
LINE
  8
0
 10
-215
 20
130.685
 11
-208.995
 21
130.685
  0
LINE
  8
0
 10
-208.995
 20
130.685
 11
-208.995
 21
118.515
  0
LINE
  8
0
 10
-208.995
 20
118.515
 11
-215
 21
118.515
  0
LINE
  8
0
 10
-18.7467
 20
-143.403
 11
-19.0834
 21
-143.357
  0
LINE
  8
0
 10
-19.0834
 20
-143.357
 11
-19.3923
 21
-143.28
  0
LINE
  8
0
 10
-19.3923
 20
-143.28
 11
-19.6737
 21
-143.172
  0
LINE
  8
0
 10
-19.6737
 20
-143.172
 11
-19.9273
 21
-143.034
  0
LINE
  8
0
 10
-19.9273
 20
-143.034
 11
-20.1533
 21
-142.864
  0
LINE
  8
0
 10
-20.1533
 20
-142.864
 11
-20.3515
 21
-142.664
  0
LINE
  8
0
 10
-20.3515
 20
-142.664
 11
-20.5228
 21
-142.433
  0
LINE
  8
0
 10
-20.5228
 20
-142.433
 11
-20.6677
 21
-142.17
  0
LINE
  8
0
 10
-20.6677
 20
-142.17
 11
-20.7863
 21
-141.875
  0
LINE
  8
0
 10
-20.7863
 20
-141.875
 11
-20.8786
 21
-141.549
  0
LINE
  8
0
 10
-20.8786
 20
-141.549
 11
-20.9444
 21
-141.191
  0
LINE
  8
0
 10
-20.9444
 20
-141.191
 11
-20.9839
 21
-140.802
  0
LINE
  8
0
 10
-20.9839
 20
-140.802
 11
-20.9971
 21
-140.38
  0
LINE
  8
0
 10
-20.9971
 20
-140.38
 11
-20.9832
 21
-139.971
  0
LINE
  8
0
 10
-20.9832
 20
-139.971
 11
-20.9415
 21
-139.591
  0
LINE
  8
0
 10
-20.9415
 20
-139.591
 11
-20.8721
 21
-139.239
  0
LINE
  8
0
 10
-20.8721
 20
-139.239
 11
-20.7748
 21
-138.915
  0
LINE
  8
0
 10
-20.7748
 20
-138.915
 11
-20.6497
 21
-138.62
  0
LINE
  8
0
 10
-20.6497
 20
-138.62
 11
-20.4969
 21
-138.354
  0
LINE
  8
0
 10
-20.4969
 20
-138.354
 11
-20.3163
 21
-138.115
  0
LINE
  8
0
 10
-20.3163
 20
-138.115
 11
-20.1094
 21
-137.907
  0
LINE
  8
0
 10
-20.1094
 20
-137.907
 11
-19.8778
 21
-137.731
  0
LINE
  8
0
 10
-19.8778
 20
-137.731
 11
-19.6216
 21
-137.587
  0
LINE
  8
0
 10
-19.6216
 20
-137.587
 11
-19.3407
 21
-137.476
  0
LINE
  8
0
 10
-19.3407
 20
-137.476
 11
-19.0351
 21
-137.396
  0
LINE
  8
0
 10
-19.0351
 20
-137.396
 11
-18.7048
 21
-137.348
  0
LINE
  8
0
 10
-18.7048
 20
-137.348
 11
-18.3498
 21
-137.332
  0
LINE
  8
0
 10
-18.3498
 20
-137.332
 11
-18.0022
 21
-137.348
  0
LINE
  8
0
 10
-18.0022
 20
-137.348
 11
-17.6786
 21
-137.396
  0
LINE
  8
0
 10
-17.6786
 20
-137.396
 11
-17.3791
 21
-137.477
  0
LINE
  8
0
 10
-17.3791
 20
-137.477
 11
-17.1035
 21
-137.59
  0
LINE
  8
0
 10
-17.1035
 20
-137.59
 11
-16.852
 21
-137.736
  0
LINE
  8
0
 10
-16.852
 20
-137.736
 11
-16.6246
 21
-137.913
  0
LINE
  8
0
 10
-16.6246
 20
-137.913
 11
-16.4211
 21
-138.124
  0
LINE
  8
0
 10
-16.4211
 20
-138.124
 11
-16.2434
 21
-138.364
  0
LINE
  8
0
 10
-16.2434
 20
-138.364
 11
-16.093
 21
-138.631
  0
LINE
  8
0
 10
-16.093
 20
-138.631
 11
-15.97
 21
-138.926
  0
LINE
  8
0
 10
-15.97
 20
-138.926
 11
-15.8743
 21
-139.248
  0
LINE
  8
0
 10
-15.8743
 20
-139.248
 11
-15.8059
 21
-139.598
  0
LINE
  8
0
 10
-15.8059
 20
-139.598
 11
-15.7649
 21
-139.976
  0
LINE
  8
0
 10
-15.7649
 20
-139.976
 11
-15.7512
 21
-140.38
  0
LINE
  8
0
 10
-15.7512
 20
-140.38
 11
-15.7652
 21
-140.797
  0
LINE
  8
0
 10
-15.7652
 20
-140.797
 11
-15.8072
 21
-141.184
  0
LINE
  8
0
 10
-15.8072
 20
-141.184
 11
-15.8773
 21
-141.54
  0
LINE
  8
0
 10
-15.8773
 20
-141.54
 11
-15.9753
 21
-141.865
  0
LINE
  8
0
 10
-15.9753
 20
-141.865
 11
-16.1013
 21
-142.159
  0
LINE
  8
0
 10
-16.1013
 20
-142.159
 11
-16.2554
 21
-142.423
  0
LINE
  8
0
 10
-16.2554
 20
-142.423
 11
-16.4375
 21
-142.656
  0
LINE
  8
0
 10
-16.4375
 20
-142.656
 11
-16.6452
 21
-142.858
  0
LINE
  8
0
 10
-16.6452
 20
-142.858
 11
-16.8763
 21
-143.029
  0
LINE
  8
0
 10
-16.8763
 20
-143.029
 11
-17.1308
 21
-143.169
  0
LINE
  8
0
 10
-17.1308
 20
-143.169
 11
-17.4086
 21
-143.278
  0
LINE
  8
0
 10
-17.4086
 20
-143.278
 11
-17.7098
 21
-143.356
  0
LINE
  8
0
 10
-17.7098
 20
-143.356
 11
-18.0344
 21
-143.403
  0
LINE
  8
0
 10
-18.0344
 20
-143.403
 11
-18.3823
 21
-143.418
  0
LINE
  8
0
 10
-18.3823
 20
-143.418
 11
-18.7467
 21
-143.403
  0
LINE
  8
0
 10
-18.1675
 20
-142.685
 11
-17.9548
 21
-142.649
  0
LINE
  8
0
 10
-17.9548
 20
-142.649
 11
-17.7605
 21
-142.589
  0
LINE
  8
0
 10
-17.7605
 20
-142.589
 11
-17.5846
 21
-142.505
  0
LINE
  8
0
 10
-17.5846
 20
-142.505
 11
-17.427
 21
-142.398
  0
LINE
  8
0
 10
-17.427
 20
-142.398
 11
-17.2879
 21
-142.266
  0
LINE
  8
0
 10
-17.2879
 20
-142.266
 11
-17.1671
 21
-142.111
  0
LINE
  8
0
 10
-17.1671
 20
-142.111
 11
-17.0634
 21
-141.932
  0
LINE
  8
0
 10
-17.0634
 20
-141.932
 11
-16.9758
 21
-141.73
  0
LINE
  8
0
 10
-16.9758
 20
-141.73
 11
-16.904
 21
-141.506
  0
LINE
  8
0
 10
-16.904
 20
-141.506
 11
-16.8482
 21
-141.259
  0
LINE
  8
0
 10
-16.8482
 20
-141.259
 11
-16.8084
 21
-140.989
  0
LINE
  8
0
 10
-16.8084
 20
-140.989
 11
-16.7845
 21
-140.696
  0
LINE
  8
0
 10
-16.7845
 20
-140.696
 11
-16.7765
 21
-140.38
  0
LINE
  8
0
 10
-16.7765
 20
-140.38
 11
-16.7845
 21
-140.066
  0
LINE
  8
0
 10
-16.7845
 20
-140.066
 11
-16.8084
 21
-139.774
  0
LINE
  8
0
 10
-16.8084
 20
-139.774
 11
-16.8482
 21
-139.504
  0
LINE
  8
0
 10
-16.8482
 20
-139.504
 11
-16.904
 21
-139.256
  0
LINE
  8
0
 10
-16.904
 20
-139.256
 11
-16.9758
 21
-139.031
  0
LINE
  8
0
 10
-16.9758
 20
-139.031
 11
-17.0634
 21
-138.828
  0
LINE
  8
0
 10
-17.0634
 20
-138.828
 11
-17.1671
 21
-138.647
  0
LINE
  8
0
 10
-17.1671
 20
-138.647
 11
-17.2866
 21
-138.489
  0
LINE
  8
0
 10
-17.2866
 20
-138.489
 11
-17.4221
 21
-138.356
  0
LINE
  8
0
 10
-17.4221
 20
-138.356
 11
-17.5736
 21
-138.247
  0
LINE
  8
0
 10
-17.5736
 20
-138.247
 11
-17.741
 21
-138.162
  0
LINE
  8
0
 10
-17.741
 20
-138.162
 11
-17.9244
 21
-138.102
  0
LINE
  8
0
 10
-17.9244
 20
-138.102
 11
-18.1237
 21
-138.065
  0
LINE
  8
0
 10
-18.1237
 20
-138.065
 11
-18.3389
 21
-138.053
  0
LINE
  8
0
 10
-18.3389
 20
-138.053
 11
-18.5756
 21
-138.065
  0
LINE
  8
0
 10
-18.5756
 20
-138.065
 11
-18.7928
 21
-138.1
  0
LINE
  8
0
 10
-18.7928
 20
-138.1
 11
-18.9906
 21
-138.16
  0
LINE
  8
0
 10
-18.9906
 20
-138.16
 11
-19.1688
 21
-138.243
  0
LINE
  8
0
 10
-19.1688
 20
-138.243
 11
-19.3276
 21
-138.349
  0
LINE
  8
0
 10
-19.3276
 20
-138.349
 11
-19.4669
 21
-138.48
  0
LINE
  8
0
 10
-19.4669
 20
-138.48
 11
-19.5867
 21
-138.634
  0
LINE
  8
0
 10
-19.5867
 20
-138.634
 11
-19.6888
 21
-138.811
  0
LINE
  8
0
 10
-19.6888
 20
-138.811
 11
-19.7753
 21
-139.013
  0
LINE
  8
0
 10
-19.7753
 20
-139.013
 11
-19.8461
 21
-139.239
  0
LINE
  8
0
 10
-19.8461
 20
-139.239
 11
-19.9011
 21
-139.488
  0
LINE
  8
0
 10
-19.9011
 20
-139.488
 11
-19.9404
 21
-139.762
  0
LINE
  8
0
 10
-19.9404
 20
-139.762
 11
-19.964
 21
-140.059
  0
LINE
  8
0
 10
-19.964
 20
-140.059
 11
-19.9718
 21
-140.38
  0
LINE
  8
0
 10
-19.9718
 20
-140.38
 11
-19.9643
 21
-140.702
  0
LINE
  8
0
 10
-19.9643
 20
-140.702
 11
-19.9415
 21
-140.999
  0
LINE
  8
0
 10
-19.9415
 20
-140.999
 11
-19.9036
 21
-141.271
  0
LINE
  8
0
 10
-19.9036
 20
-141.271
 11
-19.8505
 21
-141.52
  0
LINE
  8
0
 10
-19.8505
 20
-141.52
 11
-19.7822
 21
-141.745
  0
LINE
  8
0
 10
-19.7822
 20
-141.745
 11
-19.6988
 21
-141.945
  0
LINE
  8
0
 10
-19.6988
 20
-141.945
 11
-19.6002
 21
-142.122
  0
LINE
  8
0
 10
-19.6002
 20
-142.122
 11
-19.4846
 21
-142.274
  0
LINE
  8
0
 10
-19.4846
 20
-142.274
 11
-19.3504
 21
-142.403
  0
LINE
  8
0
 10
-19.3504
 20
-142.403
 11
-19.1975
 21
-142.509
  0
LINE
  8
0
 10
-19.1975
 20
-142.509
 11
-19.0258
 21
-142.591
  0
LINE
  8
0
 10
-19.0258
 20
-142.591
 11
-18.8354
 21
-142.65
  0
LINE
  8
0
 10
-18.8354
 20
-142.65
 11
-18.6264
 21
-142.685
  0
LINE
  8
0
 10
-18.6264
 20
-142.685
 11
-18.3986
 21
-142.697
  0
LINE
  8
0
 10
-18.3986
 20
-142.697
 11
-18.1675
 21
-142.685
  0
LINE
  8
0
 10
0.787766
 20
-143.403
 11
0.451096
 21
-143.357
  0
LINE
  8
0
 10
0.451096
 20
-143.357
 11
0.142105
 21
-143.28
  0
LINE
  8
0
 10
0.142105
 20
-143.28
 11
-0.139221
 21
-143.172
  0
LINE
  8
0
 10
-0.139221
 20
-143.172
 11
-0.392853
 21
-143.034
  0
LINE
  8
0
 10
-0.392853
 20
-143.034
 11
-0.618805
 21
-142.864
  0
LINE
  8
0
 10
-0.618805
 20
-142.864
 11
-0.817078
 21
-142.664
  0
LINE
  8
0
 10
-0.817078
 20
-142.664
 11
-0.988358
 21
-142.433
  0
LINE
  8
0
 10
-0.988358
 20
-142.433
 11
-1.13329
 21
-142.17
  0
LINE
  8
0
 10
-1.13329
 20
-142.17
 11
-1.25186
 21
-141.875
  0
LINE
  8
0
 10
-1.25186
 20
-141.875
 11
-1.3441
 21
-141.549
  0
LINE
  8
0
 10
-1.3441
 20
-141.549
 11
-1.40997
 21
-141.191
  0
LINE
  8
0
 10
-1.40997
 20
-141.191
 11
-1.44951
 21
-140.802
  0
LINE
  8
0
 10
-1.44951
 20
-140.802
 11
-1.46268
 21
-140.38
  0
LINE
  8
0
 10
-1.46268
 20
-140.38
 11
-1.44878
 21
-139.971
  0
LINE
  8
0
 10
-1.44878
 20
-139.971
 11
-1.40709
 21
-139.591
  0
LINE
  8
0
 10
-1.40709
 20
-139.591
 11
-1.33762
 21
-139.239
  0
LINE
  8
0
 10
-1.33762
 20
-139.239
 11
-1.24034
 21
-138.915
  0
LINE
  8
0
 10
-1.24034
 20
-138.915
 11
-1.1153
 21
-138.62
  0
LINE
  8
0
 10
-1.1153
 20
-138.62
 11
-0.962433
 21
-138.354
  0
LINE
  8
0
 10
-0.962433
 20
-138.354
 11
-0.781799
 21
-138.115
  0
LINE
  8
0
 10
-0.781799
 20
-138.115
 11
-0.574936
 21
-137.907
  0
LINE
  8
0
 10
-0.574936
 20
-137.907
 11
-0.343384
 21
-137.731
  0
LINE
  8
0
 10
-0.343384
 20
-137.731
 11
-0.0871582
 21
-137.587
  0
LINE
  8
0
 10
-0.0871582
 20
-137.587
 11
0.193771
 21
-137.476
  0
LINE
  8
0
 10
0.193771
 20
-137.476
 11
0.49939
 21
-137.396
  0
LINE
  8
0
 10
0.49939
 20
-137.396
 11
0.829697
 21
-137.348
  0
LINE
  8
0
 10
0.829697
 20
-137.348
 11
1.18468
 21
-137.332
  0
LINE
  8
0
 10
1.18468
 20
-137.332
 11
1.53229
 21
-137.348
  0
LINE
  8
0
 10
1.53229
 20
-137.348
 11
1.85585
 21
-137.396
  0
LINE
  8
0
 10
1.85585
 20
-137.396
 11
2.1554
 21
-137.477
  0
LINE
  8
0
 10
2.1554
 20
-137.477
 11
2.43092
 21
-137.59
  0
LINE
  8
0
 10
2.43092
 20
-137.59
 11
2.68242
 21
-137.736
  0
LINE
  8
0
 10
2.68242
 20
-137.736
 11
2.90988
 21
-137.913
  0
LINE
  8
0
 10
2.90988
 20
-137.913
 11
3.11333
 21
-138.124
  0
LINE
  8
0
 10
3.11333
 20
-138.124
 11
3.29106
 21
-138.364
  0
LINE
  8
0
 10
3.29106
 20
-138.364
 11
3.44145
 21
-138.631
  0
LINE
  8
0
 10
3.44145
 20
-138.631
 11
3.5645
 21
-138.926
  0
LINE
  8
0
 10
3.5645
 20
-138.926
 11
3.6602
 21
-139.248
  0
LINE
  8
0
 10
3.6602
 20
-139.248
 11
3.72856
 21
-139.598
  0
LINE
  8
0
 10
3.72856
 20
-139.598
 11
3.76958
 21
-139.976
  0
LINE
  8
0
 10
3.76958
 20
-139.976
 11
3.78325
 21
-140.38
  0
LINE
  8
0
 10
3.78325
 20
-140.38
 11
3.76924
 21
-140.797
  0
LINE
  8
0
 10
3.76924
 20
-140.797
 11
3.72722
 21
-141.184
  0
LINE
  8
0
 10
3.72722
 20
-141.184
 11
3.6572
 21
-141.54
  0
LINE
  8
0
 10
3.6572
 20
-141.54
 11
3.55916
 21
-141.865
  0
LINE
  8
0
 10
3.55916
 20
-141.865
 11
3.43312
 21
-142.159
  0
LINE
  8
0
 10
3.43312
 20
-142.159
 11
3.27907
 21
-142.423
  0
LINE
  8
0
 10
3.27907
 20
-142.423
 11
3.097
 21
-142.656
  0
LINE
  8
0
 10
3.097
 20
-142.656
 11
2.88925
 21
-142.858
  0
LINE
  8
0
 10
2.88925
 20
-142.858
 11
2.65814
 21
-143.029
  0
LINE
  8
0
 10
2.65814
 20
-143.029
 11
2.40366
 21
-143.169
  0
LINE
  8
0
 10
2.40366
 20
-143.169
 11
2.12582
 21
-143.278
  0
LINE
  8
0
 10
2.12582
 20
-143.278
 11
1.82462
 21
-143.356
  0
LINE
  8
0
 10
1.82462
 20
-143.356
 11
1.50005
 21
-143.403
  0
LINE
  8
0
 10
1.50005
 20
-143.403
 11
1.15213
 21
-143.418
  0
LINE
  8
0
 10
1.15213
 20
-143.418
 11
0.787766
 21
-143.403
  0
LINE
  8
0
 10
1.36694
 20
-142.685
 11
1.57964
 21
-142.649
  0
LINE
  8
0
 10
1.57964
 20
-142.649
 11
1.77394
 21
-142.589
  0
LINE
  8
0
 10
1.77394
 20
-142.589
 11
1.94987
 21
-142.505
  0
LINE
  8
0
 10
1.94987
 20
-142.505
 11
2.10742
 21
-142.398
  0
LINE
  8
0
 10
2.10742
 20
-142.398
 11
2.2466
 21
-142.266
  0
LINE
  8
0
 10
2.2466
 20
-142.266
 11
2.3674
 21
-142.111
  0
LINE
  8
0
 10
2.3674
 20
-142.111
 11
2.47102
 21
-141.932
  0
LINE
  8
0
 10
2.47102
 20
-141.932
 11
2.5587
 21
-141.73
  0
LINE
  8
0
 10
2.5587
 20
-141.73
 11
2.63043
 21
-141.506
  0
LINE
  8
0
 10
2.63043
 20
-141.506
 11
2.68623
 21
-141.259
  0
LINE
  8
0
 10
2.68623
 20
-141.259
 11
2.72607
 21
-140.989
  0
LINE
  8
0
 10
2.72607
 20
-140.989
 11
2.75
 21
-140.696
  0
LINE
  8
0
 10
2.75
 20
-140.696
 11
2.75797
 21
-140.38
  0
LINE
  8
0
 10
2.75797
 20
-140.38
 11
2.75
 21
-140.066
  0
LINE
  8
0
 10
2.75
 20
-140.066
 11
2.72607
 21
-139.774
  0
LINE
  8
0
 10
2.72607
 20
-139.774
 11
2.68623
 21
-139.504
  0
LINE
  8
0
 10
2.68623
 20
-139.504
 11
2.63043
 21
-139.256
  0
LINE
  8
0
 10
2.63043
 20
-139.256
 11
2.5587
 21
-139.031
  0
LINE
  8
0
 10
2.5587
 20
-139.031
 11
2.47102
 21
-138.828
  0
LINE
  8
0
 10
2.47102
 20
-138.828
 11
2.3674
 21
-138.647
  0
LINE
  8
0
 10
2.3674
 20
-138.647
 11
2.24782
 21
-138.489
  0
LINE
  8
0
 10
2.24782
 20
-138.489
 11
2.1123
 21
-138.356
  0
LINE
  8
0
 10
2.1123
 20
-138.356
 11
1.96083
 21
-138.247
  0
LINE
  8
0
 10
1.96083
 20
-138.247
 11
1.79343
 21
-138.162
  0
LINE
  8
0
 10
1.79343
 20
-138.162
 11
1.61008
 21
-138.102
  0
LINE
  8
0
 10
1.61008
 20
-138.102
 11
1.4108
 21
-138.065
  0
LINE
  8
0
 10
1.4108
 20
-138.065
 11
1.19556
 21
-138.053
  0
LINE
  8
0
 10
1.19556
 20
-138.053
 11
0.958862
 21
-138.065
  0
LINE
  8
0
 10
0.958862
 20
-138.065
 11
0.741638
 21
-138.1
  0
LINE
  8
0
 10
0.741638
 20
-138.1
 11
0.5439
 21
-138.16
  0
LINE
  8
0
 10
0.5439
 20
-138.16
 11
0.365646
 21
-138.243
  0
LINE
  8
0
 10
0.365646
 20
-138.243
 11
0.206879
 21
-138.349
  0
LINE
  8
0
 10
0.206879
 20
-138.349
 11
0.0675964
 21
-138.48
  0
LINE
  8
0
 10
0.0675964
 20
-138.48
 11
-0.0522003
 21
-138.634
  0
LINE
  8
0
 10
-0.0522003
 20
-138.634
 11
-0.154388
 21
-138.811
  0
LINE
  8
0
 10
-0.154388
 20
-138.811
 11
-0.24086
 21
-139.013
  0
LINE
  8
0
 10
-0.24086
 20
-139.013
 11
-0.311615
 21
-139.239
  0
LINE
  8
0
 10
-0.311615
 20
-139.239
 11
-0.366638
 21
-139.488
  0
LINE
  8
0
 10
-0.366638
 20
-139.488
 11
-0.405945
 21
-139.762
  0
LINE
  8
0
 10
-0.405945
 20
-139.762
 11
-0.429535
 21
-140.059
  0
LINE
  8
0
 10
-0.429535
 20
-140.059
 11
-0.437393
 21
-140.38
  0
LINE
  8
0
 10
-0.437393
 20
-140.38
 11
-0.42981
 21
-140.702
  0
LINE
  8
0
 10
-0.42981
 20
-140.702
 11
-0.407059
 21
-140.999
  0
LINE
  8
0
 10
-0.407059
 20
-140.999
 11
-0.369125
 21
-141.271
  0
LINE
  8
0
 10
-0.369125
 20
-141.271
 11
-0.316025
 21
-141.52
  0
LINE
  8
0
 10
-0.316025
 20
-141.52
 11
-0.247757
 21
-141.745
  0
LINE
  8
0
 10
-0.247757
 20
-141.745
 11
-0.164322
 21
-141.945
  0
LINE
  8
0
 10
-0.164322
 20
-141.945
 11
-0.0657196
 21
-142.122
  0
LINE
  8
0
 10
-0.0657196
 20
-142.122
 11
0.0498047
 21
-142.274
  0
LINE
  8
0
 10
0.0498047
 20
-142.274
 11
0.184052
 21
-142.403
  0
LINE
  8
0
 10
0.184052
 20
-142.403
 11
0.33699
 21
-142.509
  0
LINE
  8
0
 10
0.33699
 20
-142.509
 11
0.508652
 21
-142.591
  0
LINE
  8
0
 10
0.508652
 20
-142.591
 11
0.69902
 21
-142.65
  0
LINE
  8
0
 10
0.69902
 20
-142.65
 11
0.908096
 21
-142.685
  0
LINE
  8
0
 10
0.908096
 20
-142.685
 11
1.13588
 21
-142.697
  0
LINE
  8
0
 10
1.13588
 20
-142.697
 11
1.36694
 21
-142.685
  0
LINE
  8
0
 10
-4.9416
 20
-144.84
 11
-4.9416
 21
-143.31
  0
LINE
  8
0
 10
-4.9416
 20
-143.31
 11
-7.2852
 21
-143.31
  0
LINE
  8
0
 10
-7.2852
 20
-143.31
 11
-7.2852
 21
-142.54
  0
LINE
  8
0
 10
-7.2852
 20
-142.54
 11
-4.9416
 21
-142.54
  0
LINE
  8
0
 10
-4.9416
 20
-142.54
 11
-4.9416
 21
-139.002
  0
LINE
  8
0
 10
-4.9416
 20
-139.002
 11
-4.9463
 21
-138.885
  0
LINE
  8
0
 10
-4.9463
 20
-138.885
 11
-4.96042
 21
-138.776
  0
LINE
  8
0
 10
-4.96042
 20
-138.776
 11
-4.98395
 21
-138.676
  0
LINE
  8
0
 10
-4.98395
 20
-138.676
 11
-5.01689
 21
-138.585
  0
LINE
  8
0
 10
-5.01689
 20
-138.585
 11
-5.05923
 21
-138.504
  0
LINE
  8
0
 10
-5.05923
 20
-138.504
 11
-5.11099
 21
-138.431
  0
LINE
  8
0
 10
-5.11099
 20
-138.431
 11
-5.17216
 21
-138.368
  0
LINE
  8
0
 10
-5.17216
 20
-138.368
 11
-5.24406
 21
-138.313
  0
LINE
  8
0
 10
-5.24406
 20
-138.313
 11
-5.32805
 21
-138.267
  0
LINE
  8
0
 10
-5.32805
 20
-138.267
 11
-5.42409
 21
-138.229
  0
LINE
  8
0
 10
-5.42409
 20
-138.229
 11
-5.53221
 21
-138.199
  0
LINE
  8
0
 10
-5.53221
 20
-138.199
 11
-5.65239
 21
-138.178
  0
LINE
  8
0
 10
-5.65239
 20
-138.178
 11
-5.78464
 21
-138.166
  0
LINE
  8
0
 10
-5.78464
 20
-138.166
 11
-5.92896
 21
-138.162
  0
LINE
  8
0
 10
-5.92896
 20
-138.162
 11
-6.13988
 21
-138.165
  0
LINE
  8
0
 10
-6.13988
 20
-138.165
 11
-6.35721
 21
-138.177
  0
LINE
  8
0
 10
-6.35721
 20
-138.177
 11
-6.58096
 21
-138.195
  0
LINE
  8
0
 10
-6.58096
 20
-138.195
 11
-6.81113
 21
-138.222
  0
LINE
  8
0
 10
-6.81113
 20
-138.222
 11
-7.04771
 21
-138.256
  0
LINE
  8
0
 10
-7.04771
 20
-138.256
 11
-7.29073
 21
-138.297
  0
LINE
  8
0
 10
-7.29073
 20
-138.297
 11
-7.54016
 21
-138.346
  0
LINE
  8
0
 10
-7.54016
 20
-138.346
 11
-7.54016
 21
-137.603
  0
LINE
  8
0
 10
-7.54016
 20
-137.603
 11
-7.27855
 21
-137.537
  0
LINE
  8
0
 10
-7.27855
 20
-137.537
 11
-7.01761
 21
-137.481
  0
LINE
  8
0
 10
-7.01761
 20
-137.481
 11
-6.75731
 21
-137.435
  0
LINE
  8
0
 10
-6.75731
 20
-137.435
 11
-6.4977
 21
-137.399
  0
LINE
  8
0
 10
-6.4977
 20
-137.399
 11
-6.23874
 21
-137.374
  0
LINE
  8
0
 10
-6.23874
 20
-137.374
 11
-5.98044
 21
-137.358
  0
LINE
  8
0
 10
-5.98044
 20
-137.358
 11
-5.72279
 21
-137.353
  0
LINE
  8
0
 10
-5.72279
 20
-137.353
 11
-5.48068
 21
-137.361
  0
LINE
  8
0
 10
-5.48068
 20
-137.361
 11
-5.2565
 21
-137.384
  0
LINE
  8
0
 10
-5.2565
 20
-137.384
 11
-5.05025
 21
-137.421
  0
LINE
  8
0
 10
-5.05025
 20
-137.421
 11
-4.86192
 21
-137.475
  0
LINE
  8
0
 10
-4.86192
 20
-137.475
 11
-4.69153
 21
-137.543
  0
LINE
  8
0
 10
-4.69153
 20
-137.543
 11
-4.53908
 21
-137.626
  0
LINE
  8
0
 10
-4.53908
 20
-137.626
 11
-4.40456
 21
-137.725
  0
LINE
  8
0
 10
-4.40456
 20
-137.725
 11
-4.28798
 21
-137.84
  0
LINE
  8
0
 10
-4.28798
 20
-137.84
 11
-4.18933
 21
-137.972
  0
LINE
  8
0
 10
-4.18933
 20
-137.972
 11
-4.10861
 21
-138.123
  0
LINE
  8
0
 10
-4.10861
 20
-138.123
 11
-4.04584
 21
-138.29
  0
LINE
  8
0
 10
-4.04584
 20
-138.29
 11
-4.00099
 21
-138.476
  0
LINE
  8
0
 10
-4.00099
 20
-138.476
 11
-3.97409
 21
-138.679
  0
LINE
  8
0
 10
-3.97409
 20
-138.679
 11
-3.96512
 21
-138.899
  0
LINE
  8
0
 10
-3.96512
 20
-138.899
 11
-3.96512
 21
-142.54
  0
LINE
  8
0
 10
-3.96512
 20
-142.54
 11
-3.05368
 21
-142.54
  0
LINE
  8
0
 10
-3.05368
 20
-142.54
 11
-3.05368
 21
-143.31
  0
LINE
  8
0
 10
-3.05368
 20
-143.31
 11
-3.976
 21
-143.31
  0
LINE
  8
0
 10
-3.976
 20
-143.31
 11
-4.29063
 21
-144.84
  0
LINE
  8
0
 10
-4.29063
 20
-144.84
 11
-4.9416
 21
-144.84
  0
LINE
  8
0
 10
-11.4531
 20
-144.84
 11
-11.4531
 21
-143.31
  0
LINE
  8
0
 10
-11.4531
 20
-143.31
 11
-13.7967
 21
-143.31
  0
LINE
  8
0
 10
-13.7967
 20
-143.31
 11
-13.7967
 21
-142.54
  0
LINE
  8
0
 10
-13.7967
 20
-142.54
 11
-11.4531
 21
-142.54
  0
LINE
  8
0
 10
-11.4531
 20
-142.54
 11
-11.4531
 21
-139.002
  0
LINE
  8
0
 10
-11.4531
 20
-139.002
 11
-11.4578
 21
-138.885
  0
LINE
  8
0
 10
-11.4578
 20
-138.885
 11
-11.4719
 21
-138.776
  0
LINE
  8
0
 10
-11.4719
 20
-138.776
 11
-11.4954
 21
-138.676
  0
LINE
  8
0
 10
-11.4954
 20
-138.676
 11
-11.5284
 21
-138.585
  0
LINE
  8
0
 10
-11.5284
 20
-138.585
 11
-11.5707
 21
-138.504
  0
LINE
  8
0
 10
-11.5707
 20
-138.504
 11
-11.6225
 21
-138.431
  0
LINE
  8
0
 10
-11.6225
 20
-138.431
 11
-11.6836
 21
-138.368
  0
LINE
  8
0
 10
-11.6836
 20
-138.368
 11
-11.7556
 21
-138.313
  0
LINE
  8
0
 10
-11.7556
 20
-138.313
 11
-11.8395
 21
-138.267
  0
LINE
  8
0
 10
-11.8395
 20
-138.267
 11
-11.9356
 21
-138.229
  0
LINE
  8
0
 10
-11.9356
 20
-138.229
 11
-12.0437
 21
-138.199
  0
LINE
  8
0
 10
-12.0437
 20
-138.199
 11
-12.1639
 21
-138.178
  0
LINE
  8
0
 10
-12.1639
 20
-138.178
 11
-12.2961
 21
-138.166
  0
LINE
  8
0
 10
-12.2961
 20
-138.166
 11
-12.4404
 21
-138.162
  0
LINE
  8
0
 10
-12.4404
 20
-138.162
 11
-12.6514
 21
-138.165
  0
LINE
  8
0
 10
-12.6514
 20
-138.165
 11
-12.8687
 21
-138.177
  0
LINE
  8
0
 10
-12.8687
 20
-138.177
 11
-13.0924
 21
-138.195
  0
LINE
  8
0
 10
-13.0924
 20
-138.195
 11
-13.3226
 21
-138.222
  0
LINE
  8
0
 10
-13.3226
 20
-138.222
 11
-13.5592
 21
-138.256
  0
LINE
  8
0
 10
-13.5592
 20
-138.256
 11
-13.8022
 21
-138.297
  0
LINE
  8
0
 10
-13.8022
 20
-138.297
 11
-14.0517
 21
-138.346
  0
LINE
  8
0
 10
-14.0517
 20
-138.346
 11
-14.0517
 21
-137.603
  0
LINE
  8
0
 10
-14.0517
 20
-137.603
 11
-13.79
 21
-137.537
  0
LINE
  8
0
 10
-13.79
 20
-137.537
 11
-13.5291
 21
-137.481
  0
LINE
  8
0
 10
-13.5291
 20
-137.481
 11
-13.2688
 21
-137.435
  0
LINE
  8
0
 10
-13.2688
 20
-137.435
 11
-13.0092
 21
-137.399
  0
LINE
  8
0
 10
-13.0092
 20
-137.399
 11
-12.7502
 21
-137.374
  0
LINE
  8
0
 10
-12.7502
 20
-137.374
 11
-12.4919
 21
-137.358
  0
LINE
  8
0
 10
-12.4919
 20
-137.358
 11
-12.2343
 21
-137.353
  0
LINE
  8
0
 10
-12.2343
 20
-137.353
 11
-11.9922
 21
-137.361
  0
LINE
  8
0
 10
-11.9922
 20
-137.361
 11
-11.768
 21
-137.384
  0
LINE
  8
0
 10
-11.768
 20
-137.384
 11
-11.5617
 21
-137.421
  0
LINE
  8
0
 10
-11.5617
 20
-137.421
 11
-11.3734
 21
-137.475
  0
LINE
  8
0
 10
-11.3734
 20
-137.475
 11
-11.203
 21
-137.543
  0
LINE
  8
0
 10
-11.203
 20
-137.543
 11
-11.0506
 21
-137.626
  0
LINE
  8
0
 10
-11.0506
 20
-137.626
 11
-10.916
 21
-137.725
  0
LINE
  8
0
 10
-10.916
 20
-137.725
 11
-10.7995
 21
-137.84
  0
LINE
  8
0
 10
-10.7995
 20
-137.84
 11
-10.7008
 21
-137.972
  0
LINE
  8
0
 10
-10.7008
 20
-137.972
 11
-10.6201
 21
-138.123
  0
LINE
  8
0
 10
-10.6201
 20
-138.123
 11
-10.5573
 21
-138.29
  0
LINE
  8
0
 10
-10.5573
 20
-138.29
 11
-10.5125
 21
-138.476
  0
LINE
  8
0
 10
-10.5125
 20
-138.476
 11
-10.4856
 21
-138.679
  0
LINE
  8
0
 10
-10.4856
 20
-138.679
 11
-10.4766
 21
-138.899
  0
LINE
  8
0
 10
-10.4766
 20
-138.899
 11
-10.4766
 21
-142.54
  0
LINE
  8
0
 10
-10.4766
 20
-142.54
 11
-9.56517
 21
-142.54
  0
LINE
  8
0
 10
-9.56517
 20
-142.54
 11
-9.56517
 21
-143.31
  0
LINE
  8
0
 10
-9.56517
 20
-143.31
 11
-10.4875
 21
-143.31
  0
LINE
  8
0
 10
-10.4875
 20
-143.31
 11
-10.8021
 21
-144.84
  0
LINE
  8
0
 10
-10.8021
 20
-144.84
 11
-11.4531
 21
-144.84
  0
LINE
  8
0
 10
-24.2495
 20
-143.413
 11
-24.3711
 21
-143.397
  0
LINE
  8
0
 10
-24.3711
 20
-143.397
 11
-24.4829
 21
-143.37
  0
LINE
  8
0
 10
-24.4829
 20
-143.37
 11
-24.5848
 21
-143.333
  0
LINE
  8
0
 10
-24.5848
 20
-143.333
 11
-24.6768
 21
-143.285
  0
LINE
  8
0
 10
-24.6768
 20
-143.285
 11
-24.7591
 21
-143.227
  0
LINE
  8
0
 10
-24.7591
 20
-143.227
 11
-24.8314
 21
-143.158
  0
LINE
  8
0
 10
-24.8314
 20
-143.158
 11
-24.8961
 21
-143.078
  0
LINE
  8
0
 10
-24.8961
 20
-143.078
 11
-24.9554
 21
-142.986
  0
LINE
  8
0
 10
-24.9554
 20
-142.986
 11
-25.0093
 21
-142.883
  0
LINE
  8
0
 10
-25.0093
 20
-142.883
 11
-25.0577
 21
-142.768
  0
LINE
  8
0
 10
-25.0577
 20
-142.768
 11
-25.1007
 21
-142.642
  0
LINE
  8
0
 10
-25.1007
 20
-142.642
 11
-25.1383
 21
-142.504
  0
LINE
  8
0
 10
-25.1383
 20
-142.504
 11
-25.1705
 21
-142.355
  0
LINE
  8
0
 10
-25.1705
 20
-142.355
 11
-25.1813
 21
-142.355
  0
LINE
  8
0
 10
-25.1813
 20
-142.355
 11
-25.245
 21
-142.513
  0
LINE
  8
0
 10
-25.245
 20
-142.513
 11
-25.3122
 21
-142.657
  0
LINE
  8
0
 10
-25.3122
 20
-142.657
 11
-25.3827
 21
-142.787
  0
LINE
  8
0
 10
-25.3827
 20
-142.787
 11
-25.4567
 21
-142.904
  0
LINE
  8
0
 10
-25.4567
 20
-142.904
 11
-25.5342
 21
-143.008
  0
LINE
  8
0
 10
-25.5342
 20
-143.008
 11
-25.615
 21
-143.098
  0
LINE
  8
0
 10
-25.615
 20
-143.098
 11
-25.6993
 21
-143.174
  0
LINE
  8
0
 10
-25.6993
 20
-143.174
 11
-25.7886
 21
-143.239
  0
LINE
  8
0
 10
-25.7886
 20
-143.239
 11
-25.8845
 21
-143.294
  0
LINE
  8
0
 10
-25.8845
 20
-143.294
 11
-25.9868
 21
-143.339
  0
LINE
  8
0
 10
-25.9868
 20
-143.339
 11
-26.0957
 21
-143.373
  0
LINE
  8
0
 10
-26.0957
 20
-143.373
 11
-26.2112
 21
-143.398
  0
LINE
  8
0
 10
-26.2112
 20
-143.398
 11
-26.3331
 21
-143.413
  0
LINE
  8
0
 10
-26.3331
 20
-143.413
 11
-26.4617
 21
-143.418
  0
LINE
  8
0
 10
-26.4617
 20
-143.418
 11
-26.6371
 21
-143.409
  0
LINE
  8
0
 10
-26.6371
 20
-143.409
 11
-26.7977
 21
-143.38
  0
LINE
  8
0
 10
-26.7977
 20
-143.38
 11
-26.9435
 21
-143.333
  0
LINE
  8
0
 10
-26.9435
 20
-143.333
 11
-27.0745
 21
-143.266
  0
LINE
  8
0
 10
-27.0745
 20
-143.266
 11
-27.1906
 21
-143.18
  0
LINE
  8
0
 10
-27.1906
 20
-143.18
 11
-27.2919
 21
-143.076
  0
LINE
  8
0
 10
-27.2919
 20
-143.076
 11
-27.3784
 21
-142.952
  0
LINE
  8
0
 10
-27.3784
 20
-142.952
 11
-27.4518
 21
-142.805
  0
LINE
  8
0
 10
-27.4518
 20
-142.805
 11
-27.5139
 21
-142.631
  0
LINE
  8
0
 10
-27.5139
 20
-142.631
 11
-27.5647
 21
-142.429
  0
LINE
  8
0
 10
-27.5647
 20
-142.429
 11
-27.6043
 21
-142.201
  0
LINE
  8
0
 10
-27.6043
 20
-142.201
 11
-27.6325
 21
-141.945
  0
LINE
  8
0
 10
-27.6325
 20
-141.945
 11
-27.6494
 21
-141.662
  0
LINE
  8
0
 10
-27.6494
 20
-141.662
 11
-27.6551
 21
-141.351
  0
LINE
  8
0
 10
-27.6551
 20
-141.351
 11
-27.6551
 21
-137.44
  0
LINE
  8
0
 10
-27.6551
 20
-137.44
 11
-26.7437
 21
-137.44
  0
LINE
  8
0
 10
-26.7437
 20
-137.44
 11
-26.7437
 21
-141.162
  0
LINE
  8
0
 10
-26.7437
 20
-141.162
 11
-26.741
 21
-141.39
  0
LINE
  8
0
 10
-26.741
 20
-141.39
 11
-26.7329
 21
-141.598
  0
LINE
  8
0
 10
-26.7329
 20
-141.598
 11
-26.7193
 21
-141.785
  0
LINE
  8
0
 10
-26.7193
 20
-141.785
 11
-26.7003
 21
-141.952
  0
LINE
  8
0
 10
-26.7003
 20
-141.952
 11
-26.6759
 21
-142.099
  0
LINE
  8
0
 10
-26.6759
 20
-142.099
 11
-26.646
 21
-142.225
  0
LINE
  8
0
 10
-26.646
 20
-142.225
 11
-26.6108
 21
-142.331
  0
LINE
  8
0
 10
-26.6108
 20
-142.331
 11
-26.5683
 21
-142.419
  0
LINE
  8
0
 10
-26.5683
 20
-142.419
 11
-26.5169
 21
-142.494
  0
LINE
  8
0
 10
-26.5169
 20
-142.494
 11
-26.4565
 21
-142.555
  0
LINE
  8
0
 10
-26.4565
 20
-142.555
 11
-26.3871
 21
-142.603
  0
LINE
  8
0
 10
-26.3871
 20
-142.603
 11
-26.3088
 21
-142.637
  0
LINE
  8
0
 10
-26.3088
 20
-142.637
 11
-26.2215
 21
-142.657
  0
LINE
  8
0
 10
-26.2215
 20
-142.657
 11
-26.1253
 21
-142.664
  0
LINE
  8
0
 10
-26.1253
 20
-142.664
 11
-26.026
 21
-142.655
  0
LINE
  8
0
 10
-26.026
 20
-142.655
 11
-25.9329
 21
-142.627
  0
LINE
  8
0
 10
-25.9329
 20
-142.627
 11
-25.8458
 21
-142.581
  0
LINE
  8
0
 10
-25.8458
 20
-142.581
 11
-25.7648
 21
-142.515
  0
LINE
  8
0
 10
-25.7648
 20
-142.515
 11
-25.6899
 21
-142.432
  0
LINE
  8
0
 10
-25.6899
 20
-142.432
 11
-25.6211
 21
-142.329
  0
LINE
  8
0
 10
-25.6211
 20
-142.329
 11
-25.5584
 21
-142.209
  0
LINE
  8
0
 10
-25.5584
 20
-142.209
 11
-25.503
 21
-142.069
  0
LINE
  8
0
 10
-25.503
 20
-142.069
 11
-25.4561
 21
-141.911
  0
LINE
  8
0
 10
-25.4561
 20
-141.911
 11
-25.4177
 21
-141.734
  0
LINE
  8
0
 10
-25.4177
 20
-141.734
 11
-25.3879
 21
-141.539
  0
LINE
  8
0
 10
-25.3879
 20
-141.539
 11
-25.3665
 21
-141.325
  0
LINE
  8
0
 10
-25.3665
 20
-141.325
 11
-25.3538
 21
-141.093
  0
LINE
  8
0
 10
-25.3538
 20
-141.093
 11
-25.3495
 21
-140.841
  0
LINE
  8
0
 10
-25.3495
 20
-140.841
 11
-25.3495
 21
-137.44
  0
LINE
  8
0
 10
-25.3495
 20
-137.44
 11
-24.438
 21
-137.44
  0
LINE
  8
0
 10
-24.438
 20
-137.44
 11
-24.438
 21
-141.162
  0
LINE
  8
0
 10
-24.438
 20
-141.162
 11
-24.4353
 21
-141.39
  0
LINE
  8
0
 10
-24.4353
 20
-141.39
 11
-24.4272
 21
-141.598
  0
LINE
  8
0
 10
-24.4272
 20
-141.598
 11
-24.4137
 21
-141.785
  0
LINE
  8
0
 10
-24.4137
 20
-141.785
 11
-24.3947
 21
-141.952
  0
LINE
  8
0
 10
-24.3947
 20
-141.952
 11
-24.3703
 21
-142.099
  0
LINE
  8
0
 10
-24.3703
 20
-142.099
 11
-24.3404
 21
-142.225
  0
LINE
  8
0
 10
-24.3404
 20
-142.225
 11
-24.3052
 21
-142.331
  0
LINE
  8
0
 10
-24.3052
 20
-142.331
 11
-24.2627
 21
-142.419
  0
LINE
  8
0
 10
-24.2627
 20
-142.419
 11
-24.2113
 21
-142.494
  0
LINE
  8
0
 10
-24.2113
 20
-142.494
 11
-24.1509
 21
-142.555
  0
LINE
  8
0
 10
-24.1509
 20
-142.555
 11
-24.0816
 21
-142.603
  0
LINE
  8
0
 10
-24.0816
 20
-142.603
 11
-24.0032
 21
-142.637
  0
LINE
  8
0
 10
-24.0032
 20
-142.637
 11
-23.9159
 21
-142.657
  0
LINE
  8
0
 10
-23.9159
 20
-142.657
 11
-23.8197
 21
-142.664
  0
LINE
  8
0
 10
-23.8197
 20
-142.664
 11
-23.7232
 21
-142.654
  0
LINE
  8
0
 10
-23.7232
 20
-142.654
 11
-23.6321
 21
-142.622
  0
LINE
  8
0
 10
-23.6321
 20
-142.622
 11
-23.5465
 21
-142.569
  0
LINE
  8
0
 10
-23.5465
 20
-142.569
 11
-23.4662
 21
-142.494
  0
LINE
  8
0
 10
-23.4662
 20
-142.494
 11
-23.3914
 21
-142.399
  0
LINE
  8
0
 10
-23.3914
 20
-142.399
 11
-23.3221
 21
-142.282
  0
LINE
  8
0
 10
-23.3221
 20
-142.282
 11
-23.2581
 21
-142.143
  0
LINE
  8
0
 10
-23.2581
 20
-142.143
 11
-23.2013
 21
-141.987
  0
LINE
  8
0
 10
-23.2013
 20
-141.987
 11
-23.1532
 21
-141.816
  0
LINE
  8
0
 10
-23.1532
 20
-141.816
 11
-23.1138
 21
-141.629
  0
LINE
  8
0
 10
-23.1138
 20
-141.629
 11
-23.0833
 21
-141.428
  0
LINE
  8
0
 10
-23.0833
 20
-141.428
 11
-23.0614
 21
-141.211
  0
LINE
  8
0
 10
-23.0614
 20
-141.211
 11
-23.0483
 21
-140.98
  0
LINE
  8
0
 10
-23.0483
 20
-140.98
 11
-23.0439
 21
-140.733
  0
LINE
  8
0
 10
-23.0439
 20
-140.733
 11
-23.0439
 21
-137.44
  0
LINE
  8
0
 10
-23.0439
 20
-137.44
 11
-22.127
 21
-137.44
  0
LINE
  8
0
 10
-22.127
 20
-137.44
 11
-22.127
 21
-142.057
  0
LINE
  8
0
 10
-22.127
 20
-142.057
 11
-22.1263
 21
-142.333
  0
LINE
  8
0
 10
-22.1263
 20
-142.333
 11
-22.1244
 21
-142.577
  0
LINE
  8
0
 10
-22.1244
 20
-142.577
 11
-22.121
 21
-142.789
  0
LINE
  8
0
 10
-22.121
 20
-142.789
 11
-22.1164
 21
-142.968
  0
LINE
  8
0
 10
-22.1164
 20
-142.968
 11
-22.1104
 21
-143.115
  0
LINE
  8
0
 10
-22.1104
 20
-143.115
 11
-22.1031
 21
-143.228
  0
LINE
  8
0
 10
-22.1031
 20
-143.228
 11
-22.0945
 21
-143.31
  0
LINE
  8
0
 10
-22.0945
 20
-143.31
 11
-22.9028
 21
-143.31
  0
LINE
  8
0
 10
-22.9028
 20
-143.31
 11
-22.9353
 21
-142.621
  0
LINE
  8
0
 10
-22.9353
 20
-142.621
 11
-22.9353
 21
-142.36
  0
LINE
  8
0
 10
-22.9353
 20
-142.36
 11
-22.9462
 21
-142.36
  0
LINE
  8
0
 10
-22.9462
 20
-142.36
 11
-23.0009
 21
-142.512
  0
LINE
  8
0
 10
-23.0009
 20
-142.512
 11
-23.0596
 21
-142.652
  0
LINE
  8
0
 10
-23.0596
 20
-142.652
 11
-23.1223
 21
-142.779
  0
LINE
  8
0
 10
-23.1223
 20
-142.779
 11
-23.1889
 21
-142.895
  0
LINE
  8
0
 10
-23.1889
 20
-142.895
 11
-23.2596
 21
-142.997
  0
LINE
  8
0
 10
-23.2596
 20
-142.997
 11
-23.3342
 21
-143.088
  0
LINE
  8
0
 10
-23.3342
 20
-143.088
 11
-23.4128
 21
-143.166
  0
LINE
  8
0
 10
-23.4128
 20
-143.166
 11
-23.4962
 21
-143.233
  0
LINE
  8
0
 10
-23.4962
 20
-143.233
 11
-23.5855
 21
-143.29
  0
LINE
  8
0
 10
-23.5855
 20
-143.29
 11
-23.6805
 21
-143.336
  0
LINE
  8
0
 10
-23.6805
 20
-143.336
 11
-23.7812
 21
-143.372
  0
LINE
  8
0
 10
-23.7812
 20
-143.372
 11
-23.8877
 21
-143.398
  0
LINE
  8
0
 10
-23.8877
 20
-143.398
 11
-24
 21
-143.413
  0
LINE
  8
0
 10
-24
 20
-143.413
 11
-24.1181
 21
-143.418
  0
LINE
  8
0
 10
-24.1181
 20
-143.418
 11
-24.2495
 21
-143.413
  0
LINE
  8
0
 10
7.88609
 20
-144.758
 11
7.1722
 21
-144.722
  0
LINE
  8
0
 10
7.1722
 20
-144.722
 11
6.56815
 21
-144.613
  0
LINE
  8
0
 10
6.56815
 20
-144.613
 11
6.07391
 21
-144.432
  0
LINE
  8
0
 10
6.07391
 20
-144.432
 11
5.68951
 21
-144.179
  0
LINE
  8
0
 10
5.68951
 20
-144.179
 11
5.41495
 21
-143.853
  0
LINE
  8
0
 10
5.41495
 20
-143.853
 11
5.2502
 21
-143.455
  0
LINE
  8
0
 10
5.2502
 20
-143.455
 11
5.19528
 21
-142.984
  0
LINE
  8
0
 10
5.19528
 20
-142.984
 11
5.20326
 21
-142.8
  0
LINE
  8
0
 10
5.20326
 20
-142.8
 11
5.22717
 21
-142.624
  0
LINE
  8
0
 10
5.22717
 20
-142.624
 11
5.26704
 21
-142.457
  0
LINE
  8
0
 10
5.26704
 20
-142.457
 11
5.32285
 21
-142.299
  0
LINE
  8
0
 10
5.32285
 20
-142.299
 11
5.39459
 21
-142.15
  0
LINE
  8
0
 10
5.39459
 20
-142.15
 11
5.48228
 21
-142.009
  0
LINE
  8
0
 10
5.48228
 20
-142.009
 11
5.58592
 21
-141.878
  0
LINE
  8
0
 10
5.58592
 20
-141.878
 11
5.70328
 21
-141.757
  0
LINE
  8
0
 10
5.70328
 20
-141.757
 11
5.83214
 21
-141.649
  0
LINE
  8
0
 10
5.83214
 20
-141.649
 11
5.9725
 21
-141.553
  0
LINE
  8
0
 10
5.9725
 20
-141.553
 11
6.12439
 21
-141.47
  0
LINE
  8
0
 10
6.12439
 20
-141.47
 11
6.2878
 21
-141.4
  0
LINE
  8
0
 10
6.2878
 20
-141.4
 11
6.46271
 21
-141.342
  0
LINE
  8
0
 10
6.46271
 20
-141.342
 11
6.64912
 21
-141.297
  0
LINE
  8
0
 10
6.64912
 20
-141.297
 11
6.39865
 21
-141.261
  0
LINE
  8
0
 10
6.39865
 20
-141.261
 11
6.16489
 21
-141.21
  0
LINE
  8
0
 10
6.16489
 20
-141.21
 11
5.94785
 21
-141.143
  0
LINE
  8
0
 10
5.94785
 20
-141.143
 11
5.74751
 21
-141.06
  0
LINE
  8
0
 10
5.74751
 20
-141.06
 11
5.56389
 21
-140.961
  0
LINE
  8
0
 10
5.56389
 20
-140.961
 11
5.39699
 21
-140.847
  0
LINE
  8
0
 10
5.39699
 20
-140.847
 11
5.24681
 21
-140.717
  0
LINE
  8
0
 10
5.24681
 20
-140.717
 11
5.11511
 21
-140.574
  0
LINE
  8
0
 10
5.11511
 20
-140.574
 11
5.00368
 21
-140.42
  0
LINE
  8
0
 10
5.00368
 20
-140.42
 11
4.91249
 21
-140.257
  0
LINE
  8
0
 10
4.91249
 20
-140.257
 11
4.84158
 21
-140.083
  0
LINE
  8
0
 10
4.84158
 20
-140.083
 11
4.79092
 21
-139.9
  0
LINE
  8
0
 10
4.79092
 20
-139.9
 11
4.76054
 21
-139.706
  0
LINE
  8
0
 10
4.76054
 20
-139.706
 11
4.75041
 21
-139.502
  0
LINE
  8
0
 10
4.75041
 20
-139.502
 11
4.76558
 21
-139.231
  0
LINE
  8
0
 10
4.76558
 20
-139.231
 11
4.81108
 21
-138.979
  0
LINE
  8
0
 10
4.81108
 20
-138.979
 11
4.88693
 21
-138.744
  0
LINE
  8
0
 10
4.88693
 20
-138.744
 11
4.99312
 21
-138.527
  0
LINE
  8
0
 10
4.99312
 20
-138.527
 11
5.12964
 21
-138.328
  0
LINE
  8
0
 10
5.12964
 20
-138.328
 11
5.29649
 21
-138.146
  0
LINE
  8
0
 10
5.29649
 20
-138.146
 11
5.49368
 21
-137.982
  0
LINE
  8
0
 10
5.49368
 20
-137.982
 11
5.71788
 21
-137.839
  0
LINE
  8
0
 10
5.71788
 20
-137.839
 11
5.96576
 21
-137.717
  0
LINE
  8
0
 10
5.96576
 20
-137.717
 11
6.23734
 21
-137.617
  0
LINE
  8
0
 10
6.23734
 20
-137.617
 11
6.53261
 21
-137.54
  0
LINE
  8
0
 10
6.53261
 20
-137.54
 11
6.85156
 21
-137.484
  0
LINE
  8
0
 10
6.85156
 20
-137.484
 11
7.19421
 21
-137.451
  0
LINE
  8
0
 10
7.19421
 20
-137.451
 11
7.56056
 21
-137.44
  0
LINE
  8
0
 10
7.56056
 20
-137.44
 11
10.1211
 21
-137.44
  0
LINE
  8
0
 10
10.1211
 20
-137.44
 11
10.1211
 21
-144.758
  0
LINE
  8
0
 10
10.1211
 20
-144.758
 11
7.88609
 21
-144.758
  0
LINE
  8
0
 10
9.08496
 20
-138.27
 11
7.64192
 21
-138.27
  0
LINE
  8
0
 10
7.64192
 20
-138.27
 11
7.38092
 21
-138.277
  0
LINE
  8
0
 10
7.38092
 20
-138.277
 11
7.1404
 21
-138.297
  0
LINE
  8
0
 10
7.1404
 20
-138.297
 11
6.92036
 21
-138.33
  0
LINE
  8
0
 10
6.92036
 20
-138.33
 11
6.72081
 21
-138.377
  0
LINE
  8
0
 10
6.72081
 20
-138.377
 11
6.54173
 21
-138.437
  0
LINE
  8
0
 10
6.54173
 20
-138.437
 11
6.38315
 21
-138.511
  0
LINE
  8
0
 10
6.38315
 20
-138.511
 11
6.24504
 21
-138.598
  0
LINE
  8
0
 10
6.24504
 20
-138.598
 11
6.1263
 21
-138.699
  0
LINE
  8
0
 10
6.1263
 20
-138.699
 11
6.02582
 21
-138.813
  0
LINE
  8
0
 10
6.02582
 20
-138.813
 11
5.9436
 21
-138.942
  0
LINE
  8
0
 10
5.9436
 20
-138.942
 11
5.87965
 21
-139.084
  0
LINE
  8
0
 10
5.87965
 20
-139.084
 11
5.83398
 21
-139.24
  0
LINE
  8
0
 10
5.83398
 20
-139.24
 11
5.80658
 21
-139.41
  0
LINE
  8
0
 10
5.80658
 20
-139.41
 11
5.79745
 21
-139.594
  0
LINE
  8
0
 10
5.79745
 20
-139.594
 11
5.8073
 21
-139.764
  0
LINE
  8
0
 10
5.8073
 20
-139.764
 11
5.83685
 21
-139.923
  0
LINE
  8
0
 10
5.83685
 20
-139.923
 11
5.88612
 21
-140.07
  0
LINE
  8
0
 10
5.88612
 20
-140.07
 11
5.95509
 21
-140.205
  0
LINE
  8
0
 10
5.95509
 20
-140.205
 11
6.04378
 21
-140.328
  0
LINE
  8
0
 10
6.04378
 20
-140.328
 11
6.15216
 21
-140.439
  0
LINE
  8
0
 10
6.15216
 20
-140.439
 11
6.28024
 21
-140.538
  0
LINE
  8
0
 10
6.28024
 20
-140.538
 11
6.42783
 21
-140.624
  0
LINE
  8
0
 10
6.42783
 20
-140.624
 11
6.59467
 21
-140.697
  0
LINE
  8
0
 10
6.59467
 20
-140.697
 11
6.78078
 21
-140.757
  0
LINE
  8
0
 10
6.78078
 20
-140.757
 11
6.98615
 21
-140.803
  0
LINE
  8
0
 10
6.98615
 20
-140.803
 11
7.21078
 21
-140.837
  0
LINE
  8
0
 10
7.21078
 20
-140.837
 11
7.45468
 21
-140.857
  0
LINE
  8
0
 10
7.45468
 20
-140.857
 11
7.71785
 21
-140.863
  0
LINE
  8
0
 10
7.71785
 20
-140.863
 11
9.08496
 21
-140.863
  0
LINE
  8
0
 10
9.08496
 20
-140.863
 11
9.08496
 21
-138.27
  0
LINE
  8
0
 10
9.08496
 20
-141.672
 11
7.86433
 21
-141.672
  0
LINE
  8
0
 10
7.86433
 20
-141.672
 11
7.43256
 21
-141.696
  0
LINE
  8
0
 10
7.43256
 20
-141.696
 11
7.06721
 21
-141.768
  0
LINE
  8
0
 10
7.06721
 20
-141.768
 11
6.7683
 21
-141.889
  0
LINE
  8
0
 10
6.7683
 20
-141.889
 11
6.53581
 21
-142.058
  0
LINE
  8
0
 10
6.53581
 20
-142.058
 11
6.36974
 21
-142.275
  0
LINE
  8
0
 10
6.36974
 20
-142.275
 11
6.2701
 21
-142.54
  0
LINE
  8
0
 10
6.2701
 20
-142.54
 11
6.23689
 21
-142.854
  0
LINE
  8
0
 10
6.23689
 20
-142.854
 11
6.24524
 21
-143.013
  0
LINE
  8
0
 10
6.24524
 20
-143.013
 11
6.27032
 21
-143.159
  0
LINE
  8
0
 10
6.27032
 20
-143.159
 11
6.31212
 21
-143.29
  0
LINE
  8
0
 10
6.31212
 20
-143.29
 11
6.37064
 21
-143.409
  0
LINE
  8
0
 10
6.37064
 20
-143.409
 11
6.44586
 21
-143.513
  0
LINE
  8
0
 10
6.44586
 20
-143.513
 11
6.53781
 21
-143.604
  0
LINE
  8
0
 10
6.53781
 20
-143.604
 11
6.64648
 21
-143.681
  0
LINE
  8
0
 10
6.64648
 20
-143.681
 11
6.77185
 21
-143.747
  0
LINE
  8
0
 10
6.77185
 20
-143.747
 11
6.91394
 21
-143.802
  0
LINE
  8
0
 10
6.91394
 20
-143.802
 11
7.07275
 21
-143.848
  0
LINE
  8
0
 10
7.07275
 20
-143.848
 11
7.24829
 21
-143.883
  0
LINE
  8
0
 10
7.24829
 20
-143.883
 11
7.44054
 21
-143.908
  0
LINE
  8
0
 10
7.44054
 20
-143.908
 11
7.64951
 21
-143.923
  0
LINE
  8
0
 10
7.64951
 20
-143.923
 11
7.87521
 21
-143.928
  0
LINE
  8
0
 10
7.87521
 20
-143.928
 11
9.08496
 21
-143.928
  0
LINE
  8
0
 10
9.08496
 20
-143.928
 11
9.08496
 21
-141.672
  0
ENDSEC
  0
SECTION
  2
OBJECTS
  0
DICTIONARY
  0
ENDSEC
  0
EOF
